<svg width="257" height="269" viewBox="0 0 257 269" fill="none" xmlns="http://www.w3.org/2000/svg">
<path d="M167.474 37.5826C184.776 41.7887 201.318 51.1236 211.675 65.6079C221.828 79.8065 221.132 98.2635 223.253 115.589C225.426 133.332 231.731 151.896 224.228 168.121C216.65 184.51 198.839 192.699 183.324 201.936C167.674 211.252 151.9 222.676 133.699 222.013C115.457 221.349 100.42 208.938 85.5336 198.373C70.6838 187.835 53.84 177.834 47.4279 160.791C41.0634 143.875 46.3112 125.144 51.4644 107.82C56.2117 91.8614 63.9178 77.0193 75.8128 65.3688C87.4097 54.0101 102.315 47.5083 117.85 42.7991C134.096 37.8742 150.978 33.5724 167.474 37.5826Z" fill="#F4F5F6"/>
<g filter="url(#filter0_d_1054_6558)">
<g clip-path="url(#clip0_1054_6558)">
<rect x="53.3047" y="34.7124" width="120" height="166" rx="24" transform="rotate(-15 53.3047 34.7124)" fill="#FCFCFD"/>
<path d="M146.844 135.607C168.991 129.673 182.133 106.909 176.199 84.7616C170.265 62.6147 147.501 49.4717 125.354 55.406C103.207 61.3402 90.0638 84.1045 95.9981 106.251C101.932 128.398 124.697 141.541 146.844 135.607Z" fill="url(#paint0_linear_1054_6558)"/>
<path fill-rule="evenodd" clip-rule="evenodd" d="M94.6704 92.6518C99.2588 93.6909 103.902 91.9277 108.6 87.3621C116.394 79.7876 118.074 75.7385 128.766 80.1141C139.458 84.4898 144.29 76.4144 150.111 69.4666C152.643 66.4454 156.656 63.5396 160.989 62.2782C168.185 67.6608 173.693 75.4082 176.199 84.7615C178.124 91.9452 178.042 99.1938 176.296 105.912C139.664 111.679 114.445 115.414 100.639 117.117C98.6285 113.815 97.0493 110.174 95.9981 106.251C94.7768 101.694 94.3636 97.1097 94.6704 92.6518Z" fill="url(#paint1_linear_1054_6558)"/>
<path fill-rule="evenodd" clip-rule="evenodd" d="M161.684 77.4065L148.002 71.8287L143.98 68.1287L140.322 72.4886L136.444 90.9838L165.886 85.3824L161.684 77.4065Z" fill="url(#paint2_linear_1054_6558)"/>
<path opacity="0.1" d="M139.21 106.851C147.293 104.685 152.091 96.3756 149.925 88.2919C147.759 80.2083 139.45 75.4111 131.366 77.5771C123.282 79.7431 118.485 88.0521 120.651 96.1357C122.817 104.219 131.126 109.017 139.21 106.851Z" fill="url(#paint3_linear_1054_6558)"/>
<path d="M137.818 101.922C143.207 100.478 146.405 94.9392 144.961 89.5501C143.517 84.161 137.978 80.9629 132.589 82.4069C127.2 83.8509 124.001 89.3902 125.445 94.7793C126.889 100.168 132.429 103.366 137.818 101.922Z" fill="url(#paint4_linear_1054_6558)"/>
<path fill-rule="evenodd" clip-rule="evenodd" d="M151.356 83.5364L144.543 75.9714L143.98 68.1287L140.322 72.4886L136.444 90.9838L165.886 85.3824L151.356 83.5364Z" fill="url(#paint5_linear_1054_6558)"/>
<path fill-rule="evenodd" clip-rule="evenodd" d="M105.417 109.136C101.686 102.222 100.339 95.7931 101.376 89.8482L100.88 89.6048C98.7775 95.2887 98.8746 101.302 101.171 107.644L103.577 108.734L105.417 109.136Z" fill="url(#paint6_linear_1054_6558)"/>
<path fill-rule="evenodd" clip-rule="evenodd" d="M105.417 109.135C101.686 102.222 100.339 95.7928 101.376 89.8479C99.8177 95.4263 100.551 101.722 103.577 108.734C103.577 108.734 104.19 108.868 105.417 109.135Z" fill="url(#paint7_linear_1054_6558)"/>
<path fill-rule="evenodd" clip-rule="evenodd" d="M100.953 89.9656C102.655 90.6963 103.534 91.5997 103.589 92.6759C104.246 92.1091 104.483 91.4831 104.299 90.7981C104.024 89.7706 102.528 88.901 101.036 89.6952L101 89.828L100.953 89.9656Z" fill="url(#paint8_linear_1054_6558)"/>
<path fill-rule="evenodd" clip-rule="evenodd" d="M100.729 89.5507C102.617 87.6568 104.368 87.4902 105.982 89.0511C104.541 88.8993 103.446 89.0043 102.696 89.366C101.946 89.7277 101.303 89.8528 100.766 89.7411L100.729 89.5507Z" fill="url(#paint9_linear_1054_6558)"/>
<path fill-rule="evenodd" clip-rule="evenodd" d="M100.987 90.0176C100.715 88.5646 100.862 87.4854 101.427 86.7801C101.992 86.0747 103.055 85.9442 104.614 86.3887C102.91 87.0431 101.932 87.8597 101.68 88.8385C101.428 89.8174 101.197 90.2104 100.987 90.0176Z" fill="url(#paint10_linear_1054_6558)"/>
<path fill-rule="evenodd" clip-rule="evenodd" d="M100.787 89.6175C99.3541 88.1149 98.1927 87.812 97.3029 88.7088C97.3332 87.6424 97.7763 87.0058 98.6324 86.7992C99.4884 86.5925 100.316 87.5179 101.115 89.5752L100.787 89.6175Z" fill="url(#paint11_linear_1054_6558)"/>
<path fill-rule="evenodd" clip-rule="evenodd" d="M100.858 89.9138C99.1156 89.8274 98.1511 90.5361 97.9644 92.0398C97.1826 91.0812 97.2059 90.199 98.0344 89.393C98.8629 88.587 99.925 88.6849 101.221 89.6866L100.858 89.9138Z" fill="url(#paint12_linear_1054_6558)"/>
<path d="M100.864 90.1911C101.085 90.1318 101.217 89.9042 101.157 89.6827C101.098 89.4612 100.87 89.3298 100.649 89.3891C100.427 89.4485 100.296 89.6761 100.355 89.8976C100.415 90.1191 100.642 90.2505 100.864 90.1911Z" fill="url(#paint13_linear_1054_6558)"/>
<path d="M101.434 90.1819C101.656 90.1225 101.787 89.8949 101.728 89.6734C101.668 89.4519 101.441 89.3205 101.219 89.3799C100.998 89.4392 100.866 89.6668 100.926 89.8883C100.985 90.1098 101.213 90.2412 101.434 90.1819Z" fill="url(#paint14_linear_1054_6558)"/>
<path fill-rule="evenodd" clip-rule="evenodd" d="M166.778 67.525C171.12 72.2777 174.418 78.1142 176.199 84.7618C176.977 87.6658 177.427 90.5804 177.572 93.4662C174.147 94.2765 171.992 94.4884 171.105 94.1017C169.4 93.3582 157.411 92.6287 135.136 91.9132C142.464 86.4366 147.687 82.6493 150.806 80.5511L158.811 69.7135L163.46 70.3991L166.778 67.525Z" fill="url(#paint15_linear_1054_6558)"/>
<path fill-rule="evenodd" clip-rule="evenodd" d="M167.582 68.4311C171.528 73.0123 174.53 78.5306 176.199 84.7616C176.977 87.6656 177.427 90.5802 177.572 93.4661C174.147 94.2764 171.992 94.4882 171.105 94.1015C169.4 93.3581 157.411 92.6286 135.136 91.913L154.204 83.1591L166.662 81.3078L164.21 75.0188L167.582 68.4311Z" fill="url(#paint16_linear_1054_6558)"/>
<path fill-rule="evenodd" clip-rule="evenodd" d="M94.8432 100.193C104.608 95.7059 117.015 93.0787 132.064 92.3113C116.96 102.056 106.465 110.292 100.58 117.02C98.5977 113.744 97.039 110.136 95.9981 106.251C95.4572 104.233 95.0748 102.209 94.8432 100.193Z" fill="url(#paint17_linear_1054_6558)"/>
<path fill-rule="evenodd" clip-rule="evenodd" d="M119.981 108.437L118.118 108.164L115.642 107.244C112.908 101.078 112.392 95.0864 114.093 89.2697L114.605 89.4779C113.985 95.4807 115.777 101.8 119.981 108.437Z" fill="url(#paint18_linear_1054_6558)"/>
<path fill-rule="evenodd" clip-rule="evenodd" d="M119.981 108.437C118.739 108.255 118.118 108.164 118.118 108.164C114.61 101.38 113.439 95.1515 114.605 89.478C113.985 95.4808 115.777 101.8 119.981 108.437Z" fill="url(#paint19_linear_1054_6558)"/>
<path fill-rule="evenodd" clip-rule="evenodd" d="M114.191 89.6243L114.228 89.4838L114.255 89.3487C115.688 88.4525 117.241 89.2155 117.587 90.2214C117.818 90.8919 117.625 91.5329 117.01 92.1441C116.879 91.0745 115.94 90.2345 114.191 89.6243Z" fill="url(#paint20_linear_1054_6558)"/>
<path fill-rule="evenodd" clip-rule="evenodd" d="M114.222 89.3029C115.433 86.9182 117.046 86.2187 119.063 87.2045C117.646 87.5053 116.637 87.9437 116.035 88.5195C115.434 89.0953 114.861 89.413 114.316 89.4726L114.222 89.3029Z" fill="url(#paint21_linear_1054_6558)"/>
<path fill-rule="evenodd" clip-rule="evenodd" d="M114.206 89.5702C113.637 88.2056 113.556 87.1195 113.963 86.312C114.369 85.5045 115.381 85.156 116.999 85.2666C115.468 86.261 114.681 87.2631 114.638 88.2729C114.595 89.2828 114.451 89.7152 114.206 89.5702Z" fill="url(#paint22_linear_1054_6558)"/>
<path fill-rule="evenodd" clip-rule="evenodd" d="M114.001 89.2887C112.467 87.8897 111.287 87.6685 110.462 88.6253C110.418 87.5593 110.816 86.8934 111.655 86.6275C112.495 86.3617 113.385 87.227 114.325 89.2236L114.001 89.2887Z" fill="url(#paint23_linear_1054_6558)"/>
<path fill-rule="evenodd" clip-rule="evenodd" d="M114.092 89.5799C112.348 89.6152 111.436 90.3894 111.354 91.9025C110.508 91.0008 110.469 90.1191 111.239 89.2573C112.01 88.3955 113.076 88.419 114.439 89.3279L114.092 89.5799Z" fill="url(#paint24_linear_1054_6558)"/>
<path d="M114.09 89.8645C114.311 89.8051 114.443 89.5775 114.384 89.356C114.324 89.1346 114.097 89.0031 113.875 89.0625C113.654 89.1218 113.522 89.3495 113.582 89.5709C113.641 89.7924 113.868 89.9238 114.09 89.8645Z" fill="url(#paint25_linear_1054_6558)"/>
<path d="M114.658 89.8152C114.88 89.7558 115.011 89.5282 114.952 89.3067C114.893 89.0852 114.665 88.9538 114.443 89.0132C114.222 89.0725 114.091 89.3001 114.15 89.5216C114.209 89.7431 114.437 89.8745 114.658 89.8152Z" fill="url(#paint26_linear_1054_6558)"/>
<path fill-rule="evenodd" clip-rule="evenodd" d="M97.3707 110.471C97.8053 109.027 99.0283 107.884 101.04 107.042C106.366 104.813 103.222 98.8876 110.595 97.9343C117.968 96.981 126.365 93.4072 131.998 92.3464L120.808 107.573L98.9114 113.98C98.3483 112.844 97.8336 111.673 97.3707 110.471Z" fill="url(#paint27_linear_1054_6558)"/>
<path fill-rule="evenodd" clip-rule="evenodd" d="M98.255 112.591C118.88 93.1861 145.097 84.9478 176.909 87.8766C180.882 109.005 167.953 129.951 146.844 135.607C126.903 140.95 106.461 130.828 98.255 112.591Z" fill="url(#paint28_linear_1054_6558)"/>
<path fill-rule="evenodd" clip-rule="evenodd" d="M129.331 136.476C132.67 133.1 133.993 127.421 133.264 120.398C131.564 104.015 136.469 96.7216 157.426 97.0489C170.165 97.2479 176.749 94.7213 177.176 89.4692C180.227 110.048 167.422 130.093 146.844 135.607C140.94 137.189 134.992 137.415 129.331 136.476Z" fill="url(#paint29_linear_1054_6558)"/>
<path fill-rule="evenodd" clip-rule="evenodd" d="M107.618 125.719C106.957 120.858 109.559 116.565 115.425 112.842C127.627 105.097 127.794 92.4189 140.705 94.5116C149.313 95.9067 155.403 96.7401 158.975 97.0118C142.982 96.8022 134.806 101.103 134.447 109.913C133.998 120.952 135.251 132.361 130.643 136.673C121.979 135.521 113.917 131.647 107.618 125.719Z" fill="url(#paint30_linear_1054_6558)"/>
<path fill-rule="evenodd" clip-rule="evenodd" d="M130.604 136.667C141.046 135.006 139.52 124.22 146.731 122.288C153.958 120.351 163.58 119.784 164.771 110.306C165.473 104.713 169.757 99.6678 177.623 95.1702C177.785 113.641 165.514 130.605 146.844 135.607C141.381 137.071 135.88 137.374 130.604 136.667L130.604 136.667Z" fill="url(#paint31_linear_1054_6558)"/>
<path fill-rule="evenodd" clip-rule="evenodd" d="M101.085 77.6503C101.354 75.3642 102.381 74.166 104.165 74.0557C106.842 73.8903 106.699 76.3393 109.442 73.9872C112.184 71.6351 115.388 73.818 115.388 73.818C115.388 73.818 110.62 75.0954 101.085 77.6503Z" fill="url(#paint32_linear_1054_6558)"/>
<path fill-rule="evenodd" clip-rule="evenodd" d="M146.908 59.166C136.088 62.0651 130.678 63.5147 130.678 63.5147C130.678 63.5147 132.588 59.552 136.617 60.3074C140.647 61.0629 139.117 58.7371 141.842 57.381C143.658 56.477 145.347 57.072 146.908 59.166Z" fill="url(#paint33_linear_1054_6558)"/>
</g>
</g>
<g filter="url(#filter1_d_1054_6558)">
<rect x="48.5" y="36" width="128" height="160" rx="24" transform="rotate(-15 48.5 36)" fill="#FCFCFD"/>
<rect x="49.1124" y="36.3536" width="127" height="159" rx="23.5" transform="rotate(-15 49.1124 36.3536)" stroke="#F4F5F6"/>
</g>
<rect x="96.5" y="67" width="64" height="64" rx="32" fill="#58C27D"/>
<path fill-rule="evenodd" clip-rule="evenodd" d="M123.5 89C122.948 89 122.5 89.4477 122.5 90V91H121.5C119.843 91 118.5 92.3431 118.5 94V106C118.5 107.657 119.843 109 121.5 109H135.5C137.157 109 138.5 107.657 138.5 106V94C138.5 92.3431 137.157 91 135.5 91H134.5V90C134.5 89.4477 134.052 89 133.5 89C132.948 89 132.5 89.4477 132.5 90V91H124.5V90C124.5 89.4477 124.052 89 123.5 89ZM125.5 100C125.5 99.4477 125.948 99 126.5 99H133.5C134.052 99 134.5 99.4477 134.5 100C134.5 100.552 134.052 101 133.5 101H126.5C125.948 101 125.5 100.552 125.5 100ZM122.5 104C122.5 103.448 122.948 103 123.5 103H129.5C130.052 103 130.5 103.448 130.5 104C130.5 104.552 130.052 105 129.5 105H123.5C122.948 105 122.5 104.552 122.5 104Z" fill="#FCFCFD"/>
<rect width="8" height="8" rx="2" transform="matrix(0.939693 -0.34202 -0.34202 -0.939693 220.604 35.3804)" fill="#FFD166"/>
<rect width="12" height="12" rx="2" transform="matrix(0.939693 -0.34202 -0.34202 -0.939693 21.6042 206.38)" fill="#CDB4DB"/>
<defs>
<filter id="filter0_d_1054_6558" x="37.3047" y="3.6543" width="190.875" height="271.402" filterUnits="userSpaceOnUse" color-interpolation-filters="sRGB">
<feFlood flood-opacity="0" result="BackgroundImageFix"/>
<feColorMatrix in="SourceAlpha" type="matrix" values="0 0 0 0 0 0 0 0 0 0 0 0 0 0 0 0 0 0 127 0" result="hardAlpha"/>
<feMorphology radius="48" operator="erode" in="SourceAlpha" result="effect1_dropShadow_1054_6558"/>
<feOffset dy="64"/>
<feGaussianBlur stdDeviation="32"/>
<feColorMatrix type="matrix" values="0 0 0 0 0.0583333 0 0 0 0 0.0583333 0 0 0 0 0.0583333 0 0 0 0.08 0"/>
<feBlend mode="multiply" in2="BackgroundImageFix" result="effect1_dropShadow_1054_6558"/>
<feBlend mode="normal" in="SourceGraphic" in2="effect1_dropShadow_1054_6558" result="shape"/>
</filter>
<filter id="filter1_d_1054_6558" x="40.5" y="2.87109" width="181.05" height="235.677" filterUnits="userSpaceOnUse" color-interpolation-filters="sRGB">
<feFlood flood-opacity="0" result="BackgroundImageFix"/>
<feColorMatrix in="SourceAlpha" type="matrix" values="0 0 0 0 0 0 0 0 0 0 0 0 0 0 0 0 0 0 127 0" result="hardAlpha"/>
<feMorphology radius="24" operator="erode" in="SourceAlpha" result="effect1_dropShadow_1054_6558"/>
<feOffset dy="40"/>
<feGaussianBlur stdDeviation="16"/>
<feColorMatrix type="matrix" values="0 0 0 0 0.0583333 0 0 0 0 0.0583333 0 0 0 0 0.0583333 0 0 0 0.12 0"/>
<feBlend mode="multiply" in2="BackgroundImageFix" result="effect1_dropShadow_1054_6558"/>
<feBlend mode="normal" in="SourceGraphic" in2="effect1_dropShadow_1054_6558" result="shape"/>
</filter>
<linearGradient id="paint0_linear_1054_6558" x1="115.944" y1="57.9273" x2="127.511" y2="132.405" gradientUnits="userSpaceOnUse">
<stop stop-color="#EEFFFD"/>
<stop offset="1" stop-color="#B7FFF6"/>
</linearGradient>
<linearGradient id="paint1_linear_1054_6558" x1="124.176" y1="88.6495" x2="125.882" y2="91.9153" gradientUnits="userSpaceOnUse">
<stop stop-color="#EEFFFD"/>
<stop offset="1" stop-color="#B7FFF6"/>
</linearGradient>
<linearGradient id="paint2_linear_1054_6558" x1="150.473" y1="73.2834" x2="149.114" y2="88.2902" gradientUnits="userSpaceOnUse">
<stop stop-color="#30A0DE"/>
<stop offset="1" stop-color="#194383"/>
</linearGradient>
<linearGradient id="paint3_linear_1054_6558" x1="131.366" y1="77.5771" x2="134.703" y2="98.8669" gradientUnits="userSpaceOnUse">
<stop stop-color="#F9BB49"/>
<stop offset="1" stop-color="#F08523"/>
</linearGradient>
<linearGradient id="paint4_linear_1054_6558" x1="132.589" y1="82.4069" x2="134.813" y2="96.6001" gradientUnits="userSpaceOnUse">
<stop stop-color="#F9BB49"/>
<stop offset="1" stop-color="#F08523"/>
</linearGradient>
<linearGradient id="paint5_linear_1054_6558" x1="146.616" y1="75.7679" x2="147.744" y2="90.4947" gradientUnits="userSpaceOnUse">
<stop stop-color="#30A0DE"/>
<stop offset="1" stop-color="#194383"/>
</linearGradient>
<linearGradient id="paint6_linear_1054_6558" x1="102.436" y1="103.408" x2="97.379" y2="89.3717" gradientUnits="userSpaceOnUse">
<stop stop-color="#DB593D"/>
<stop offset="1" stop-color="#F88461"/>
</linearGradient>
<linearGradient id="paint7_linear_1054_6558" x1="101.98" y1="98.3472" x2="100.665" y2="88.8748" gradientUnits="userSpaceOnUse">
<stop stop-color="#CD4C30"/>
<stop offset="1" stop-color="#F88461" stop-opacity="0"/>
</linearGradient>
<linearGradient id="paint8_linear_1054_6558" x1="102.728" y1="93.4582" x2="102.687" y2="90.051" gradientUnits="userSpaceOnUse">
<stop stop-color="#13DBBF"/>
<stop offset="1" stop-color="#08B58B"/>
</linearGradient>
<linearGradient id="paint9_linear_1054_6558" x1="101.602" y1="89.465" x2="102.138" y2="88.4617" gradientUnits="userSpaceOnUse">
<stop stop-color="#13DBBF"/>
<stop offset="1" stop-color="#08B58B"/>
</linearGradient>
<linearGradient id="paint10_linear_1054_6558" x1="104.947" y1="86.0861" x2="102.02" y2="89.059" gradientUnits="userSpaceOnUse">
<stop stop-color="#13DBBF"/>
<stop offset="1" stop-color="#08B58B"/>
</linearGradient>
<linearGradient id="paint11_linear_1054_6558" x1="98.4224" y1="90.6361" x2="98.5607" y2="87.6125" gradientUnits="userSpaceOnUse">
<stop stop-color="#13DBBF"/>
<stop offset="1" stop-color="#08B58B"/>
</linearGradient>
<linearGradient id="paint12_linear_1054_6558" x1="101.868" y1="90.4579" x2="98.406" y2="88.6159" gradientUnits="userSpaceOnUse">
<stop stop-color="#13DBBF"/>
<stop offset="1" stop-color="#08B58B"/>
</linearGradient>
<linearGradient id="paint13_linear_1054_6558" x1="100.264" y1="89.7835" x2="101.029" y2="89.9414" gradientUnits="userSpaceOnUse">
<stop stop-color="#E3F35C"/>
<stop offset="1" stop-color="#C3E22F"/>
</linearGradient>
<linearGradient id="paint14_linear_1054_6558" x1="100.834" y1="89.7742" x2="101.599" y2="89.9321" gradientUnits="userSpaceOnUse">
<stop stop-color="#E3F35C"/>
<stop offset="1" stop-color="#C3E22F"/>
</linearGradient>
<linearGradient id="paint15_linear_1054_6558" x1="156.87" y1="79.3839" x2="154.738" y2="95.7022" gradientUnits="userSpaceOnUse">
<stop stop-color="#30A0DE"/>
<stop offset="1" stop-color="#194383"/>
</linearGradient>
<linearGradient id="paint16_linear_1054_6558" x1="156.972" y1="83.1581" x2="155.039" y2="95.6544" gradientUnits="userSpaceOnUse">
<stop stop-color="#30A0DE"/>
<stop offset="1" stop-color="#194383"/>
</linearGradient>
<linearGradient id="paint17_linear_1054_6558" x1="131.94" y1="96.6242" x2="114" y2="112.445" gradientUnits="userSpaceOnUse">
<stop stop-color="#68C179"/>
<stop offset="1" stop-color="#25A062"/>
</linearGradient>
<linearGradient id="paint18_linear_1054_6558" x1="116.272" y1="102.905" x2="111.367" y2="88.8049" gradientUnits="userSpaceOnUse">
<stop stop-color="#DB593D"/>
<stop offset="1" stop-color="#F88461"/>
</linearGradient>
<linearGradient id="paint19_linear_1054_6558" x1="115.753" y1="97.8438" x2="114.236" y2="88.367" gradientUnits="userSpaceOnUse">
<stop stop-color="#CD4C30"/>
<stop offset="1" stop-color="#F88461" stop-opacity="0"/>
</linearGradient>
<linearGradient id="paint20_linear_1054_6558" x1="115.869" y1="92.9893" x2="115.878" y2="89.6302" gradientUnits="userSpaceOnUse">
<stop stop-color="#13DBBF"/>
<stop offset="1" stop-color="#08B58B"/>
</linearGradient>
<linearGradient id="paint21_linear_1054_6558" x1="114.92" y1="88.5121" x2="115.393" y2="87.4805" gradientUnits="userSpaceOnUse">
<stop stop-color="#13DBBF"/>
<stop offset="1" stop-color="#08B58B"/>
</linearGradient>
<linearGradient id="paint22_linear_1054_6558" x1="117.188" y1="84.625" x2="114.506" y2="88.0727" gradientUnits="userSpaceOnUse">
<stop stop-color="#13DBBF"/>
<stop offset="1" stop-color="#08B58B"/>
</linearGradient>
<linearGradient id="paint23_linear_1054_6558" x1="111.468" y1="90.0499" x2="111.641" y2="87.4691" gradientUnits="userSpaceOnUse">
<stop stop-color="#13DBBF"/>
<stop offset="1" stop-color="#08B58B"/>
</linearGradient>
<linearGradient id="paint24_linear_1054_6558" x1="115.168" y1="90.4185" x2="111.647" y2="88.4357" gradientUnits="userSpaceOnUse">
<stop stop-color="#13DBBF"/>
<stop offset="1" stop-color="#08B58B"/>
</linearGradient>
<linearGradient id="paint25_linear_1054_6558" x1="113.49" y1="89.4568" x2="114.255" y2="89.6147" gradientUnits="userSpaceOnUse">
<stop stop-color="#E3F35C"/>
<stop offset="1" stop-color="#C3E22F"/>
</linearGradient>
<linearGradient id="paint26_linear_1054_6558" x1="114.058" y1="89.4075" x2="114.824" y2="89.5654" gradientUnits="userSpaceOnUse">
<stop stop-color="#E3F35C"/>
<stop offset="1" stop-color="#C3E22F"/>
</linearGradient>
<linearGradient id="paint27_linear_1054_6558" x1="130.323" y1="98.4069" x2="114.431" y2="107.306" gradientUnits="userSpaceOnUse">
<stop stop-color="#68C179"/>
<stop offset="1" stop-color="#25A062"/>
</linearGradient>
<linearGradient id="paint28_linear_1054_6558" x1="141.728" y1="102.494" x2="137.275" y2="128.797" gradientUnits="userSpaceOnUse">
<stop stop-color="#77EBFF"/>
<stop offset="1" stop-color="#4D86DE"/>
</linearGradient>
<linearGradient id="paint29_linear_1054_6558" x1="178.891" y1="100.499" x2="143.026" y2="152.953" gradientUnits="userSpaceOnUse">
<stop stop-color="#91F6FF"/>
<stop offset="1" stop-color="#4D86DE"/>
</linearGradient>
<linearGradient id="paint30_linear_1054_6558" x1="137.257" y1="98.9421" x2="131.551" y2="138.636" gradientUnits="userSpaceOnUse">
<stop stop-color="#77EBFF"/>
<stop offset="1" stop-color="#4D86DE"/>
</linearGradient>
<linearGradient id="paint31_linear_1054_6558" x1="162.171" y1="111.359" x2="139.03" y2="150.485" gradientUnits="userSpaceOnUse">
<stop stop-color="#91F6FF"/>
<stop offset="1" stop-color="#4D86DE"/>
</linearGradient>
<linearGradient id="paint32_linear_1054_6558" x1="109.673" y1="73.8762" x2="101.461" y2="79.366" gradientUnits="userSpaceOnUse">
<stop stop-color="#C1FFF7"/>
<stop offset="1" stop-color="#93E9DE"/>
</linearGradient>
<linearGradient id="paint33_linear_1054_6558" x1="140.423" y1="59.2321" x2="131.105" y2="65.4615" gradientUnits="userSpaceOnUse">
<stop stop-color="#C1FFF7"/>
<stop offset="1" stop-color="#93E9DE"/>
</linearGradient>
<clipPath id="clip0_1054_6558">
<rect x="53.3047" y="34.7124" width="120" height="166" rx="24" transform="rotate(-15 53.3047 34.7124)" fill="white"/>
</clipPath>
</defs>
</svg>
