<svg width="161" height="160" viewBox="0 0 161 160" fill="none" xmlns="http://www.w3.org/2000/svg">
<path d="M80.5 140C113.637 140 140.5 113.137 140.5 80C140.5 46.8629 113.637 20 80.5 20C47.3629 20 20.5 46.8629 20.5 80C20.5 113.137 47.3629 140 80.5 140Z" fill="url(#paint0_linear_1054_2289)"/>
<path fill-rule="evenodd" clip-rule="evenodd" d="M140.463 82.1219C120.422 80.6455 99.4017 81.1588 77.4028 83.6618C55.4648 86.1579 37.3062 90.5866 22.9269 96.9478C21.3474 91.5735 20.5 85.8858 20.5 80.0003C20.5 75.1487 21.0758 70.4316 22.1629 65.9137C26.8531 62.5945 33.2834 64.5626 38.241 69.3003C45.8999 76.6194 51.9314 80.2155 62.7881 69.3003C73.6448 58.385 80.1346 60.9094 86.6017 69.3003C93.0687 77.6912 99.1641 75.5628 112.774 73.5242C120.937 72.3014 130.179 74.5746 140.499 80.3436C140.496 80.9385 140.484 81.5313 140.463 82.1219V82.1219Z" fill="url(#paint1_linear_1054_2289)"/>
<path fill-rule="evenodd" clip-rule="evenodd" d="M20.51 81.1089C26.0216 74.4551 32.7509 72.5756 40.6978 75.4704C56.796 81.3346 58.198 80.1411 65.0132 75.4704C71.8284 70.7998 71.5372 67.7726 80.5 73.1624C89.4628 78.5523 96.4242 81.4915 104.087 78.852C111.749 76.2124 121.072 71.2553 129.96 81.2222C109.585 80.5396 91.9145 81.4942 76.948 84.0859C59.8943 87.0391 35.6696 97.8404 25.0093 102.862C22.2361 96.1385 20.6494 88.8005 20.51 81.1089Z" fill="url(#paint2_linear_1054_2289)"/>
<path fill-rule="evenodd" clip-rule="evenodd" d="M22.928 96.9513C51.7286 82.6199 90.9099 77.588 140.472 81.8555C139.491 114.134 113.016 140 80.5 140C53.2498 140 30.2426 121.834 22.928 96.9513Z" fill="url(#paint3_linear_1054_2289)"/>
<path fill-rule="evenodd" clip-rule="evenodd" d="M22.8837 96.8001C47.4114 83.8518 80.7071 78.5159 122.771 80.7923C116.37 80.7923 91.9298 80.7923 76.9066 88.6489C61.8834 96.5056 65.2797 101.518 75.9533 105.902C86.627 110.286 80.0846 117.186 75.9533 117.186C73.1992 117.186 68.2083 116.324 60.9809 114.598C53.0301 113.172 44.101 114.358 34.1938 118.157C29.0811 111.959 25.1884 104.718 22.8837 96.8001Z" fill="url(#paint4_linear_1054_2289)"/>
<path fill-rule="evenodd" clip-rule="evenodd" d="M33.6039 117.43C46.8657 111.777 59.2263 111.139 70.6857 115.514C94.6825 124.678 106.829 107.651 112.916 93.5383C117.602 82.6729 133.444 80.9996 140.487 81.2692C139.812 113.82 113.213 140 80.5 140C61.52 140 44.5984 131.187 33.6039 117.43H33.6039Z" fill="url(#paint5_linear_1054_2289)"/>
<path fill-rule="evenodd" clip-rule="evenodd" d="M69.9408 139.074C69.8546 139.059 69.7684 139.043 69.6824 139.028V139.016C69.7689 139.036 69.855 139.055 69.9408 139.074H69.9408Z" fill="url(#paint6_linear_1054_2289)"/>
<path fill-rule="evenodd" clip-rule="evenodd" d="M77.7582 139.938C80.5688 139.812 82.643 139.037 83.9808 137.613C87.5786 133.784 78.7628 124.684 92.4526 123.93C106.143 123.176 123.284 124.864 117.974 113.589C112.668 102.321 119.132 81.3659 140.485 81.3413C139.772 113.859 113.189 140 80.4999 140C79.5811 140 78.667 139.979 77.7582 139.938Z" fill="url(#paint7_linear_1054_2289)"/>
<path fill-rule="evenodd" clip-rule="evenodd" d="M75.7688 62.231C77.2235 57.8949 79.3334 53.969 80.5 50.8043C83.3489 43.0753 89.9502 41.7873 89.9502 35.1569C89.9502 28.5264 95.697 27.1765 98.7939 21.4C101.891 15.6235 104.774 21.9762 108.13 27.1765C111.486 32.3767 115.177 31.8199 115.177 41.7873C115.177 51.7546 122.119 51.8624 126.235 60.9158C128.487 65.8675 131.667 71.5995 135.775 78.1115C127.338 74.1533 119.671 72.6907 112.774 73.7239C99.164 75.7625 93.0687 77.8908 86.6016 69.5C83.2065 65.0948 79.8051 62.3066 75.7688 62.231Z" fill="url(#paint8_linear_1054_2289)"/>
<path fill-rule="evenodd" clip-rule="evenodd" d="M108.13 27.1768C111.486 32.377 115.177 31.8202 115.177 41.7876C115.177 51.7549 122.119 51.8627 126.235 60.9161C128.487 65.8678 131.667 71.5997 135.775 78.1118C127.338 74.1536 119.671 72.691 112.774 73.7242C99.164 75.7628 95.4999 65.6417 100.144 61.6511C104.788 57.6605 113.61 51.33 109.674 47.0798C105.738 42.8295 106.586 39.5196 108.13 35.9283C108.779 34.4089 109.104 32.9442 109.104 31.5342C109.104 29.419 108.13 27.1768 108.13 27.1768Z" fill="url(#paint9_linear_1054_2289)"/>
<path fill-rule="evenodd" clip-rule="evenodd" d="M113.853 73.5834C113.491 73.6236 113.131 73.6704 112.774 73.724C99.1641 75.7626 93.0688 77.8909 86.6017 69.5C80.1347 61.1091 73.6448 58.5848 62.7881 69.5C51.9314 80.4153 45.8999 76.8192 38.241 69.5C35.8599 67.2245 33.139 65.5879 30.4343 64.8692C31.5987 62.6663 32.7335 60.3515 33.3222 58.0011C34.8294 51.9833 34.5233 48.4399 39.3633 45.9782C44.2033 43.5165 45.6667 41.281 45.6667 34.2119C45.6667 27.1428 54.2848 27.3128 53.2597 20.4859C52.2346 13.659 56.9105 13.8219 61.2415 9.56166C65.5725 5.30139 70.5758 17.127 74.5228 20.4859C78.4699 23.8448 75.2814 26.9357 78.8913 29.5734C82.5011 32.2112 82.5775 32.079 83.867 37.8295C84.7267 41.6633 86.8978 44.3795 90.3804 45.9782C92.0748 46.7066 94.7388 47.0708 98.3725 47.0708C103.823 47.0708 102.812 52.6802 102.812 58.0011C102.812 63.322 108.146 65.7842 112.152 70.7727C112.895 71.6976 113.462 72.6345 113.853 73.5834H113.853Z" fill="url(#paint10_linear_1054_2289)"/>
<path fill-rule="evenodd" clip-rule="evenodd" d="M57.3623 15.8411C54.1946 19.4591 64.3335 24.3752 59.4887 32.4339C54.644 40.4927 71.6073 45.9781 62.3818 53.9558C56.2315 59.2743 56.367 64.4557 62.7881 69.4999C51.9314 80.4151 45.8999 76.819 38.241 69.4999C35.8599 67.2244 33.139 65.5878 30.4343 64.869C31.5987 62.6661 32.7335 60.3513 33.3222 58.001C34.8294 51.9832 34.5233 48.4398 39.3633 45.9781C44.2033 43.5164 45.6667 41.2809 45.6667 34.2118C45.6667 27.1427 54.2848 27.3127 53.2597 20.4858C52.2346 13.6589 56.9106 13.8218 61.2415 9.56152C60.7672 11.3358 59.4741 13.429 57.3623 15.8411Z" fill="url(#paint11_linear_1054_2289)"/>
<path fill-rule="evenodd" clip-rule="evenodd" d="M46.1278 80.9486C42.1748 81.7398 39.9828 80.8485 39.552 78.2746C38.9056 74.4137 44.5558 72.3558 41.7307 68.3405C38.9056 64.3251 44.0011 60.979 43.4376 57.1676C42.8741 53.3563 44.643 51.6262 48.4038 59.9546C52.1645 68.2831 46.4264 67.4115 49.9558 73.4145C52.3087 77.4166 51.0327 79.9279 46.1278 80.9486Z" fill="url(#paint12_linear_1054_2289)"/>
<path fill-rule="evenodd" clip-rule="evenodd" d="M45.3743 63.5434C46.7666 65.9488 45.5821 67.8773 45.1489 69.3154C44.7157 70.7536 45.0216 73.1 45.3743 74.221C45.727 75.3421 45.295 77.9099 45.1489 78.8625C45.0028 79.8152 45.4622 81.0718 45.1489 81.115C41.8115 81.5743 39.9459 80.6275 39.552 78.2745C38.9056 74.4136 44.5558 72.3557 41.7307 68.3403C38.9056 64.325 44.0011 60.9788 43.4376 57.1675C43.8005 59.8145 44.4461 61.9398 45.3743 63.5434Z" fill="url(#paint13_linear_1054_2289)"/>
<path fill-rule="evenodd" clip-rule="evenodd" d="M43.4579 88.33C44.7533 82.7827 44.939 79.4333 44.0152 78.2817C42.6294 76.5544 42.4352 74.8469 43.4579 76.3242C44.4806 77.8015 45.55 78.2389 44.8669 74.089C44.1837 69.939 46.3117 65.508 45.9485 67.179C45.5853 68.8501 44.7465 71.6102 45.6182 74.089C46.49 76.5677 44.3228 78.8568 47.2739 77.7116C50.225 76.5664 48.3457 77.7257 46.9705 78.8387C45.5952 79.9517 45.5688 79.9613 46.13 82.6913C46.5042 84.5113 46.6241 86.0871 46.49 87.4188L43.4579 88.33Z" fill="url(#paint14_linear_1054_2289)"/>
<path fill-rule="evenodd" clip-rule="evenodd" d="M70.1281 78.0343C67.6064 78.5404 66.208 77.9704 65.9332 76.3243C65.5209 73.8551 69.1253 72.539 67.3231 69.971C65.5209 67.4031 68.7714 65.2631 68.4119 62.8256C68.0524 60.3881 69.1809 59.2817 71.58 64.608C73.9791 69.9343 70.3186 69.3769 72.5701 73.2161C74.0711 75.7755 73.2571 77.3816 70.1281 78.0343Z" fill="url(#paint15_linear_1054_2289)"/>
<path fill-rule="evenodd" clip-rule="evenodd" d="M69.6474 66.9033C70.5356 68.4417 69.78 69.675 69.5036 70.5947C69.2273 71.5145 69.4225 73.0151 69.6474 73.732C69.8724 74.449 69.5968 76.0912 69.5036 76.7004C69.4104 77.3097 69.7035 78.1134 69.5036 78.1409C67.3746 78.4347 66.1844 77.8292 65.9332 76.3243C65.5209 73.8552 69.1253 72.5391 67.3231 69.9711C65.5209 67.4031 68.7714 65.2632 68.4119 62.8257C68.6435 64.5185 69.0553 65.8777 69.6474 66.9033Z" fill="url(#paint16_linear_1054_2289)"/>
<path fill-rule="evenodd" clip-rule="evenodd" d="M68.4249 82.7552C69.2512 79.2074 69.3697 77.0654 68.7804 76.3289C67.8964 75.2242 67.7725 74.1322 68.4249 75.077C69.0773 76.0218 69.7595 76.3015 69.3237 73.6475C68.8879 70.9935 70.2454 68.1597 70.0137 69.2284C69.782 70.2971 69.2469 72.0623 69.803 73.6475C70.3591 75.2327 68.9766 76.6967 70.8592 75.9643C72.7418 75.2319 71.543 75.9733 70.6656 76.6851C69.7883 77.3969 69.7715 77.4031 70.1295 79.149C70.3682 80.3129 70.4501 81.4196 70.3753 82.469L68.4249 82.7552Z" fill="url(#paint17_linear_1054_2289)"/>
<path d="M65.3336 83.1104L65.5113 83.2022C60.9015 92.1225 57.8411 97.6822 56.3267 99.8864L56.1619 99.7732C57.6696 97.5785 60.728 92.0225 65.3336 83.1104Z" fill="#123874"/>
<path fill-rule="evenodd" clip-rule="evenodd" d="M86.5747 96.873L88.9224 97.5629C86.9156 98.4816 85.4936 99.4424 84.6565 100.445C80.3393 101.081 76.6479 101.955 73.5823 103.067C66.1551 102.36 61.0279 100.904 58.2007 98.6978L65.2028 89.166L86.5747 96.873Z" fill="url(#paint18_linear_1054_2289)"/>
<path fill-rule="evenodd" clip-rule="evenodd" d="M84.2124 99.4545C86.015 98.1862 87.5932 97.552 88.9471 97.552C85.5139 93.5637 82.5026 89.1798 79.9134 84.4004L71.66 88.1704L78.2149 98.6376L81.1516 97.904H83.2277L84.2124 99.4545Z" fill="url(#paint19_linear_1054_2289)"/>
<path fill-rule="evenodd" clip-rule="evenodd" d="M58.1991 98.5911C61.8776 100.561 66.9683 101.747 73.4712 102.15C76.6589 100.808 79.4769 100.137 81.9252 100.137C80.7122 96.6974 80.034 91.4254 79.8906 84.3208C76.4032 84.4488 73.5777 84.4488 71.4141 84.3208C69.2505 84.1929 67.2417 83.7941 65.3876 83.1245C64.1766 86.6958 62.9707 89.6038 61.7697 91.8484C60.5687 94.0931 59.3785 96.3407 58.1991 98.5911Z" fill="url(#paint20_linear_1054_2289)"/>
<path fill-rule="evenodd" clip-rule="evenodd" d="M58.199 98.5911C61.8774 100.561 66.9681 101.747 73.4711 102.15C76.0693 96.8119 78.2091 90.869 79.8905 84.3208C76.4031 84.4488 73.5776 84.4488 71.414 84.3208C69.2504 84.1929 67.2416 83.7941 65.3875 83.1245C64.1765 86.6958 62.9705 89.6038 61.7696 91.8484C60.5686 94.0931 59.3784 96.3407 58.199 98.5911Z" fill="url(#paint21_linear_1054_2289)"/>
<path fill-rule="evenodd" clip-rule="evenodd" d="M84.2123 99.4545C86.0149 98.1862 87.5932 97.552 88.947 97.552C85.5138 93.5637 82.5026 89.1798 79.9133 84.4004C80.3979 88.0076 80.8419 90.6327 81.2451 92.2757C81.5784 93.6335 82.2392 95.5096 83.2277 97.904L84.2123 99.4545Z" fill="url(#paint22_linear_1054_2289)"/>
<path d="M74.3881 104.38L74.2078 104.294C75.4936 101.61 77.3689 95.0128 79.8295 84.5118L79.8819 84.2881L80.0099 84.4789C84.0847 90.5525 87.9386 95.0227 91.57 97.8891L91.4461 98.0461C87.8343 95.1951 84.0101 90.7734 79.9718 84.7807C77.5334 95.1673 75.6735 101.697 74.3881 104.38Z" fill="#123874"/>
<path fill-rule="evenodd" clip-rule="evenodd" d="M92.0194 97.3361L91.4495 98.046L91.4088 97.9368L91.7347 97.2017L92.0194 97.3361Z" fill="#123874"/>
<path fill-rule="evenodd" clip-rule="evenodd" d="M73.6265 104.101L73.8178 103.823L74.4261 104.27L74.3855 104.379L73.6265 104.101Z" fill="#123874"/>
<path fill-rule="evenodd" clip-rule="evenodd" d="M55.587 99.5292L55.7697 99.2529L56.3608 99.7822L56.3271 99.8844L55.587 99.5292Z" fill="#123874"/>
<defs>
<linearGradient id="paint0_linear_1054_2289" x1="77.337" y1="69.5152" x2="96.6639" y2="21.8848" gradientUnits="userSpaceOnUse">
<stop stop-color="#D5EDF3"/>
<stop offset="1" stop-color="#A2DBD8"/>
</linearGradient>
<linearGradient id="paint1_linear_1054_2289" x1="99.9038" y1="78.3868" x2="68.5315" y2="103.704" gradientUnits="userSpaceOnUse">
<stop stop-color="#2FAC6D"/>
<stop offset="1" stop-color="#007846"/>
</linearGradient>
<linearGradient id="paint2_linear_1054_2289" x1="128.05" y1="85.1353" x2="53.8673" y2="111.194" gradientUnits="userSpaceOnUse">
<stop stop-color="#2FAC6D"/>
<stop offset="1" stop-color="#007846"/>
</linearGradient>
<linearGradient id="paint3_linear_1054_2289" x1="136.693" y1="102.527" x2="71.6384" y2="136.161" gradientUnits="userSpaceOnUse">
<stop stop-color="#68C179"/>
<stop offset="1" stop-color="#25A062"/>
</linearGradient>
<linearGradient id="paint4_linear_1054_2289" x1="114.424" y1="96.7319" x2="76.7445" y2="114.581" gradientUnits="userSpaceOnUse">
<stop stop-color="#68C179"/>
<stop offset="1" stop-color="#25A062"/>
</linearGradient>
<linearGradient id="paint5_linear_1054_2289" x1="90.2285" y1="100.402" x2="85.9267" y2="122.409" gradientUnits="userSpaceOnUse">
<stop stop-color="#77EBFF"/>
<stop offset="1" stop-color="#4D86DE"/>
</linearGradient>
<linearGradient id="paint6_linear_1054_2289" x1="69.9051" y1="139.031" x2="69.8841" y2="139.119" gradientUnits="userSpaceOnUse">
<stop stop-color="#91F6FF"/>
<stop offset="1" stop-color="#4D86DE"/>
</linearGradient>
<linearGradient id="paint7_linear_1054_2289" x1="131.835" y1="90.5936" x2="85.907" y2="157.544" gradientUnits="userSpaceOnUse">
<stop stop-color="#91F6FF"/>
<stop offset="1" stop-color="#4D86DE"/>
</linearGradient>
<linearGradient id="paint8_linear_1054_2289" x1="107.528" y1="29.0879" x2="91.1604" y2="77.303" gradientUnits="userSpaceOnUse">
<stop stop-color="#30A0DE"/>
<stop offset="1" stop-color="#194383"/>
</linearGradient>
<linearGradient id="paint9_linear_1054_2289" x1="109.67" y1="97.922" x2="139.458" y2="-15.4174" gradientUnits="userSpaceOnUse">
<stop stop-color="#30A0DE"/>
<stop offset="1" stop-color="#194383"/>
</linearGradient>
<linearGradient id="paint10_linear_1054_2289" x1="74.5848" y1="27.2275" x2="62.8353" y2="74.0876" gradientUnits="userSpaceOnUse">
<stop stop-color="#30A0DE"/>
<stop offset="1" stop-color="#194383"/>
</linearGradient>
<linearGradient id="paint11_linear_1054_2289" x1="49.643" y1="28.179" x2="37.0899" y2="86.1442" gradientUnits="userSpaceOnUse">
<stop stop-color="#30A0DE"/>
<stop offset="1" stop-color="#194383"/>
</linearGradient>
<linearGradient id="paint12_linear_1054_2289" x1="45.3" y1="54" x2="45.3" y2="74.7031" gradientUnits="userSpaceOnUse">
<stop stop-color="#68C179"/>
<stop offset="1" stop-color="#1FA063"/>
</linearGradient>
<linearGradient id="paint13_linear_1054_2289" x1="42.8244" y1="58.8234" x2="41.1183" y2="81.1066" gradientUnits="userSpaceOnUse">
<stop stop-color="#68C179"/>
<stop offset="1" stop-color="#1FA063"/>
</linearGradient>
<linearGradient id="paint14_linear_1054_2289" x1="45.7806" y1="91.5299" x2="46.3482" y2="75.2972" gradientUnits="userSpaceOnUse">
<stop stop-color="#006239"/>
<stop offset="1" stop-color="#007846"/>
</linearGradient>
<linearGradient id="paint15_linear_1054_2289" x1="69.6" y1="60.7998" x2="69.6" y2="74.0402" gradientUnits="userSpaceOnUse">
<stop stop-color="#68C179"/>
<stop offset="1" stop-color="#1FA063"/>
</linearGradient>
<linearGradient id="paint16_linear_1054_2289" x1="68.0206" y1="63.8847" x2="66.9322" y2="78.1359" gradientUnits="userSpaceOnUse">
<stop stop-color="#68C179"/>
<stop offset="1" stop-color="#1FA063"/>
</linearGradient>
<linearGradient id="paint17_linear_1054_2289" x1="69.8599" y1="91.3675" x2="70.818" y2="75.9309" gradientUnits="userSpaceOnUse">
<stop stop-color="#006239"/>
<stop offset="1" stop-color="#008D52"/>
</linearGradient>
<linearGradient id="paint18_linear_1054_2289" x1="121.245" y1="95.3132" x2="69.1511" y2="104.92" gradientUnits="userSpaceOnUse">
<stop stop-color="#68C179"/>
<stop offset="1" stop-color="#139553"/>
</linearGradient>
<linearGradient id="paint19_linear_1054_2289" x1="80.3036" y1="86.2193" x2="81.1643" y2="93.1626" gradientUnits="userSpaceOnUse">
<stop stop-color="#F9BB49"/>
<stop offset="1" stop-color="#CD6709"/>
</linearGradient>
<linearGradient id="paint20_linear_1054_2289" x1="71.9309" y1="84.1681" x2="76.2577" y2="102.379" gradientUnits="userSpaceOnUse">
<stop stop-color="#F9BB49"/>
<stop offset="1" stop-color="#F08523"/>
</linearGradient>
<linearGradient id="paint21_linear_1054_2289" x1="69.0447" y1="85.3194" x2="67.7798" y2="95.7126" gradientUnits="userSpaceOnUse">
<stop stop-color="#F9BB49"/>
<stop offset="1" stop-color="#F08523"/>
</linearGradient>
<linearGradient id="paint22_linear_1054_2289" x1="84.4302" y1="84.4004" x2="83.7501" y2="95.0166" gradientUnits="userSpaceOnUse">
<stop stop-color="#F9BB49"/>
<stop offset="1" stop-color="#F08523"/>
</linearGradient>
</defs>
</svg>
