<svg width="17" height="16" viewBox="0 0 17 16" fill="none" xmlns="http://www.w3.org/2000/svg">
<path fill-rule="evenodd" clip-rule="evenodd" d="M8.50004 13.3333C11.4456 13.3333 13.8334 10.9454 13.8334 7.99992C13.8334 5.0544 11.4456 2.66659 8.50004 2.66659C5.55452 2.66659 3.16671 5.0544 3.16671 7.99992C3.16671 10.9454 5.55452 13.3333 8.50004 13.3333ZM8.50004 14.6666C12.1819 14.6666 15.1667 11.6818 15.1667 7.99992C15.1667 4.31802 12.1819 1.33325 8.50004 1.33325C4.81814 1.33325 1.83337 4.31802 1.83337 7.99992C1.83337 11.6818 4.81814 14.6666 8.50004 14.6666Z" fill="currentColor"/>
<path d="M7.83337 4.66667C7.83337 4.29848 8.13185 4 8.50004 4C8.86823 4 9.16671 4.29848 9.16671 4.66667C10.2713 4.66667 11.1667 5.5621 11.1667 6.66667C11.1667 7.03486 10.8682 7.33333 10.5 7.33333C10.1319 7.33333 9.83337 7.03486 9.83337 6.66667C9.83337 6.29848 9.5349 6 9.16671 6H7.66232C7.3886 6 7.16671 6.22189 7.16671 6.49561C7.16671 6.70894 7.30321 6.89833 7.50559 6.96579L9.91613 7.7693C10.663 8.01825 11.1667 8.71716 11.1667 9.50439C11.1667 10.5145 10.3479 11.3333 9.33776 11.3333H9.16671C9.16671 11.7015 8.86823 12 8.50004 12C8.13185 12 7.83337 11.7015 7.83337 11.3333C6.7288 11.3333 5.83337 10.4379 5.83337 9.33333C5.83337 8.96514 6.13185 8.66667 6.50004 8.66667C6.86823 8.66667 7.16671 8.96514 7.16671 9.33333C7.16671 9.70152 7.46518 10 7.83337 10H9.33776C9.61148 10 9.83337 9.77811 9.83337 9.50439C9.83337 9.29106 9.69687 9.10167 9.49449 9.03421L7.08396 8.2307C6.33712 7.98176 5.83337 7.28284 5.83337 6.49561C5.83337 5.48551 6.65222 4.66667 7.66232 4.66667H7.83337Z" fill="currentColor"/>
</svg>
