<svg width="121" height="134" viewBox="0 0 121 134" fill="none" xmlns="http://www.w3.org/2000/svg">
<path d="M60.5 134C93.6371 134 120.5 107.137 120.5 74C120.5 40.8629 93.6371 14 60.5 14C27.3629 14 0.5 40.8629 0.5 74C0.5 107.137 27.3629 134 60.5 134Z" fill="url(#paint0_linear_1054_2326)"/>
<path fill-rule="evenodd" clip-rule="evenodd" d="M27.2166 24.0707C29.7468 22.3806 32.4127 20.8778 35.1945 19.582H67.2684L27.2166 24.0707Z" fill="url(#paint1_linear_1054_2326)"/>
<path fill-rule="evenodd" clip-rule="evenodd" d="M77.3295 33.8843C76.8668 33.8843 69.1404 34.2035 54.1503 34.8419L89.8558 38.1264C81.9677 35.2983 77.7922 33.8843 77.3295 33.8843Z" fill="url(#paint2_linear_1054_2326)"/>
<path fill-rule="evenodd" clip-rule="evenodd" d="M54.5534 54.0414L76.54 19.3711L82.4375 22.528H88.95L116.794 57.252L80.9747 68.0372L52.5522 59.7834L54.5534 54.0414Z" fill="url(#paint3_linear_1054_2326)"/>
<path fill-rule="evenodd" clip-rule="evenodd" d="M68.1252 62.4919L80.9748 52.5063L77.8821 35.7492L86.3883 28.7458L82.4376 22.5278H88.9501L116.794 57.2519L80.9748 68.0371L68.1252 62.4919Z" fill="url(#paint4_linear_1054_2326)"/>
<path fill-rule="evenodd" clip-rule="evenodd" d="M0.501419 73.5832C18.4728 56.7154 30.7285 46.4585 37.2688 42.8125L50.0812 43.3126L75.4307 66.8092L43.067 86.5983H1.82481C0.956824 82.5361 0.5 78.3215 0.5 74.0002C0.5 73.8611 0.500474 73.7221 0.501419 73.5832Z" fill="url(#paint5_linear_1054_2326)"/>
<path fill-rule="evenodd" clip-rule="evenodd" d="M1.8248 86.5982C1.6396 85.7315 1.47312 84.8579 1.32581 83.9777L9.06908 81.7962L37.1264 52.952L50.0811 43.3125L75.4306 66.8091L43.0669 86.5982H1.8248Z" fill="url(#paint6_linear_1054_2326)"/>
<path fill-rule="evenodd" clip-rule="evenodd" d="M43.1907 65.2627H44.9296L45.1703 75.576H42.95L43.1907 65.2627Z" fill="url(#paint7_linear_1054_2326)"/>
<path fill-rule="evenodd" clip-rule="evenodd" d="M37.8726 67.2914L43.8551 66.3628L50.4767 67.2914L49.1449 60.5318C45.6183 59.4878 43.8551 58.9658 43.8551 58.9658C43.8551 58.9658 42.2158 59.6413 38.9373 60.9922L37.8726 67.2914Z" fill="url(#paint8_linear_1054_2326)"/>
<path fill-rule="evenodd" clip-rule="evenodd" d="M49.712 63.4103L49.4935 62.3013L46.5725 62.7385L49.712 63.4103Z" fill="url(#paint9_linear_1054_2326)"/>
<path fill-rule="evenodd" clip-rule="evenodd" d="M37.8826 61.4718L43.9114 60.1784L50.3974 61.4718L49.4491 55.6125L43.9114 53.2681L38.8059 55.088L38.1233 59.8076H38.8059L38.035 60.4181L37.8826 61.4718Z" fill="url(#paint10_linear_1054_2326)"/>
<path fill-rule="evenodd" clip-rule="evenodd" d="M37.5302 55.7844L43.8541 54.4959L50.414 55.7844L49.8173 53.2491L47.4302 52.6901H49.6857L43.9721 28.4146L40.4737 43.278H42.4788L40.1476 44.6636L37.5302 55.7844Z" fill="url(#paint11_linear_1054_2326)"/>
<path fill-rule="evenodd" clip-rule="evenodd" d="M4.30005 68.6001H6.10005V79.6001H4.30005V68.6001Z" fill="url(#paint12_linear_1054_2326)"/>
<path fill-rule="evenodd" clip-rule="evenodd" d="M6.92873 46.9507L11.9 71.8L4.97554 70.4295L0.558105 71.3364C0.940119 62.5918 3.1939 54.3329 6.92873 46.9507Z" fill="url(#paint13_linear_1054_2326)"/>
<path fill-rule="evenodd" clip-rule="evenodd" d="M28.3 64.6001H30.1V75.6001H28.3V64.6001Z" fill="url(#paint14_linear_1054_2326)"/>
<path fill-rule="evenodd" clip-rule="evenodd" d="M22.3 67.8L28.9756 66.4294L35.9 67.8L28.938 33L22.3 67.8Z" fill="url(#paint15_linear_1054_2326)"/>
<path fill-rule="evenodd" clip-rule="evenodd" d="M0.859497 80.6055C7.3836 75.7811 17.0077 74.2037 29.7317 75.8733C55.7543 79.2878 62.0128 54.3491 90.0404 54.3491C100.432 54.3491 108.103 51.2425 113.055 45.0293C117.8 53.6181 120.5 63.4938 120.5 74.0002C120.5 107.137 93.6371 134 60.5001 134C29.5953 134 4.14787 110.635 0.859497 80.6055Z" fill="url(#paint16_linear_1054_2326)"/>
<path fill-rule="evenodd" clip-rule="evenodd" d="M1.85413 86.7344C5.68403 84.5717 10.9569 85.4172 14.0556 86.9916C18.1134 89.0532 22.617 88.8374 32.6505 85.2976C39.3395 82.9377 45.9499 85.623 52.4816 93.3533C45.3459 92.3523 40.5273 93.5953 38.0258 97.0822C34.2735 102.313 29.2053 103.188 19.0141 101.867C13.3735 101.136 10.5354 102.992 9.05249 104.891C5.72278 99.3571 3.26059 93.2423 1.85413 86.7344H1.85413Z" fill="url(#paint17_linear_1054_2326)"/>
<path fill-rule="evenodd" clip-rule="evenodd" d="M110.619 65.8418C103.503 63.0371 97.6806 63.0371 93.1509 65.8418C88.6212 68.6466 83.1326 69.5034 76.6851 68.4125L77.767 77.1013L113.148 76.2587L110.619 65.8418Z" fill="url(#paint18_linear_1054_2326)"/>
<path fill-rule="evenodd" clip-rule="evenodd" d="M107.3 111.55C106.467 112.588 105.599 113.597 104.7 114.576V104H107.3V111.55Z" fill="url(#paint19_linear_1054_2326)"/>
<path fill-rule="evenodd" clip-rule="evenodd" d="M114.039 101.114C112.938 103.284 111.709 105.378 110.361 107.385L105.724 106.47L96.3 108.4L105.671 59.3999L114.039 101.114Z" fill="url(#paint20_linear_1054_2326)"/>
<path fill-rule="evenodd" clip-rule="evenodd" d="M63.3 133.936C62.4379 133.975 61.5711 133.997 60.7 134V126H63.3V133.936Z" fill="url(#paint21_linear_1054_2326)"/>
<path fill-rule="evenodd" clip-rule="evenodd" d="M52.3 130.4L61.7243 128.47L71.5 130.4L61.6713 81.3999L52.3 130.4Z" fill="url(#paint22_linear_1054_2326)"/>
<path fill-rule="evenodd" clip-rule="evenodd" d="M31.1 126.316C30.5615 126.012 30.0281 125.701 29.5 125.382V122.6H31.1V126.316Z" fill="url(#paint23_linear_1054_2326)"/>
<path fill-rule="evenodd" clip-rule="evenodd" d="M24.719 122.168L30.1523 93.8003L36.5 125.4L30.1865 124.156L28.1868 124.565C27.0018 123.806 25.8452 123.006 24.719 122.168H24.719Z" fill="url(#paint24_linear_1054_2326)"/>
<path fill-rule="evenodd" clip-rule="evenodd" d="M117.445 92.9546C116.441 95.9717 115.204 98.8824 113.755 101.665V88.3857H117.445V92.9546V92.9546Z" fill="url(#paint25_linear_1054_2326)"/>
<path fill-rule="evenodd" clip-rule="evenodd" d="M120.262 79.3842C119.918 83.2486 119.208 87.0077 118.166 90.6264L115.259 90.2178L105.319 91.7642L107.088 81.2743L115.259 77.8999L120.262 79.3842Z" fill="url(#paint26_linear_1054_2326)"/>
<path fill-rule="evenodd" clip-rule="evenodd" d="M120.403 70.5538C120.467 71.6943 120.5 72.8433 120.5 74C120.5 76.3231 120.368 78.6154 120.111 80.8697L115.353 79.9187L105.336 82.0725L105.589 80.3178L106.87 79.3011H105.736L106.87 71.4418L115.353 68.4111L120.403 70.5538Z" fill="url(#paint27_linear_1054_2326)"/>
<path fill-rule="evenodd" clip-rule="evenodd" d="M111.752 42.7866C116.892 51.2084 120.015 60.9961 120.448 71.478L115.258 70.4563L104.75 72.6019L109.099 54.0829L112.972 51.7756H109.641L111.752 42.7866Z" fill="url(#paint28_linear_1054_2326)"/>
<path fill-rule="evenodd" clip-rule="evenodd" d="M96.4423 122.048C95.6708 122.626 94.885 123.186 94.0853 123.727V114.806H96.4423V122.048Z" fill="url(#paint29_linear_1054_2326)"/>
<path fill-rule="evenodd" clip-rule="evenodd" d="M88.6954 116.964L95.0461 115.976L102.075 116.964L100.661 109.774C96.9179 108.664 95.0461 108.109 95.0461 108.109C95.0461 108.109 93.306 108.827 89.8257 110.264L88.6954 116.964Z" fill="url(#paint30_linear_1054_2326)"/>
<path fill-rule="evenodd" clip-rule="evenodd" d="M101.263 112.835L101.032 111.656L97.9308 112.121L101.263 112.835Z" fill="url(#paint31_linear_1054_2326)"/>
<path fill-rule="evenodd" clip-rule="evenodd" d="M88.7061 110.774L95.1059 109.398L101.991 110.774L100.984 104.542L95.1059 102.048L89.6862 103.984L88.9616 109.003H89.6862L88.8678 109.653L88.7061 110.774Z" fill="url(#paint32_linear_1054_2326)"/>
<path fill-rule="evenodd" clip-rule="evenodd" d="M88.332 104.725L95.0452 103.355L102.009 104.725L101.375 102.029L98.8413 101.434H101.236L95.1704 75.6157L91.4567 91.4239H93.5852L91.1106 92.8975L88.332 104.725Z" fill="url(#paint33_linear_1054_2326)"/>
<path fill-rule="evenodd" clip-rule="evenodd" d="M18.8438 117.183L20.525 116.58L25.2108 118.577L25.9293 123.046C23.4184 121.273 21.0498 119.312 18.8438 117.183Z" fill="url(#paint34_linear_1054_2326)"/>
<path fill-rule="evenodd" clip-rule="evenodd" d="M16.137 114.398L17.3403 109.252L19.3128 108.072H17.6162L20.5764 95.4126L25.411 116.088H23.5025L25.5223 116.564L26.0272 118.723L20.4766 117.626L19.5169 117.823C18.3453 116.727 17.2177 115.584 16.137 114.398Z" fill="url(#paint35_linear_1054_2326)"/>
<path fill-rule="evenodd" clip-rule="evenodd" d="M41.1 130.794C40.3601 130.542 39.6266 130.275 38.9 129.994V124H41.1V130.794Z" fill="url(#paint36_linear_1054_2326)"/>
<path fill-rule="evenodd" clip-rule="evenodd" d="M34.1 125.8L39.8907 124.908L46.3 125.8L45.0109 119.305C41.5974 118.302 39.8907 117.8 39.8907 117.8C39.8907 117.8 38.304 118.449 35.1306 119.747L34.1 125.8Z" fill="url(#paint37_linear_1054_2326)"/>
<path fill-rule="evenodd" clip-rule="evenodd" d="M45.5 122L45.2912 121L42.5 121.394L45.5 122Z" fill="url(#paint38_linear_1054_2326)"/>
<path fill-rule="evenodd" clip-rule="evenodd" d="M34.1 120.4L39.9771 119.139L46.3 120.4L45.3756 114.686L39.9771 112.4L35.0001 114.175L34.3346 118.777H35.0001L34.2485 119.372L34.1 120.4Z" fill="url(#paint39_linear_1054_2326)"/>
<path fill-rule="evenodd" clip-rule="evenodd" d="M33.7 114.8L39.7864 113.548L46.0999 114.8L45.5256 112.336L43.2282 111.793H45.399L39.9 88.2002L36.533 102.646H38.4628L36.2191 103.992L33.7 114.8Z" fill="url(#paint40_linear_1054_2326)"/>
<path fill-rule="evenodd" clip-rule="evenodd" d="M78.8446 131.144C77.6313 131.533 76.4011 131.885 75.1554 132.198V120.786H78.8446V131.144Z" fill="url(#paint41_linear_1054_2326)"/>
<path fill-rule="evenodd" clip-rule="evenodd" d="M66.719 124.165L76.6592 122.618L87.6612 124.165L85.4484 112.908C79.5889 111.17 76.6592 110.3 76.6592 110.3C76.6592 110.3 73.9355 111.425 68.4881 113.675L66.719 124.165Z" fill="url(#paint42_linear_1054_2326)"/>
<path fill-rule="evenodd" clip-rule="evenodd" d="M86.3906 117.701L86.0275 115.854L81.1742 116.582L86.3906 117.701Z" fill="url(#paint43_linear_1054_2326)"/>
<path fill-rule="evenodd" clip-rule="evenodd" d="M66.7356 114.472L76.7527 112.319L87.5294 114.472L85.9539 104.715L76.7527 100.811L68.2697 103.842L67.1355 111.701H68.2697L66.9888 112.718L66.7356 114.472Z" fill="url(#paint44_linear_1054_2326)"/>
<path fill-rule="evenodd" clip-rule="evenodd" d="M66.1501 105.002L76.6577 102.856L87.5571 105.002L86.5656 100.78L82.5994 99.8492H86.347L76.8536 59.4243L71.041 84.1758H74.3725L70.4991 86.4831L66.1501 105.002Z" fill="url(#paint45_linear_1054_2326)"/>
<path fill-rule="evenodd" clip-rule="evenodd" d="M15.1554 62.1855H18.0446L18.3514 75.2777C17.5491 75.3195 16.9045 75.3589 16.4177 75.3959C15.9308 75.4328 15.4122 75.4819 14.8618 75.5429L15.1554 62.1855Z" fill="url(#paint46_linear_1054_2326)"/>
<path fill-rule="evenodd" clip-rule="evenodd" d="M6.31897 65.5644L16.2592 64.0181L27.2612 65.5644L25.0484 54.308C19.1889 52.5695 16.2592 51.7002 16.2592 51.7002C16.2592 51.7002 13.5355 52.825 8.08811 55.0746L6.31897 65.5644Z" fill="url(#paint47_linear_1054_2326)"/>
<path fill-rule="evenodd" clip-rule="evenodd" d="M25.9907 59.1008L25.6276 57.2539L20.7743 57.9821L25.9907 59.1008Z" fill="url(#paint48_linear_1054_2326)"/>
<path fill-rule="evenodd" clip-rule="evenodd" d="M6.33569 55.8728L16.3528 53.719L27.1295 55.8728L25.554 46.1154L16.3528 42.2114L7.86981 45.2421L6.73563 53.1014H7.86981L6.58891 54.1181L6.33569 55.8728Z" fill="url(#paint49_linear_1054_2326)"/>
<path fill-rule="evenodd" clip-rule="evenodd" d="M5.75012 46.402L16.2576 44.2563L27.1571 46.402L26.1656 42.1801L22.1994 41.2491H25.947L16.4536 0.824219L10.641 25.5757H13.9725L10.0991 27.883L5.75012 46.402Z" fill="url(#paint50_linear_1054_2326)"/>
<path d="M55.2 74.4C55.5866 74.4 55.9 74.0866 55.9 73.7C55.9 73.3134 55.5866 73 55.2 73C54.8134 73 54.5 73.3134 54.5 73.7C54.5 74.0866 54.8134 74.4 55.2 74.4Z" fill="url(#paint51_linear_1054_2326)"/>
<path opacity="0.3" d="M13.2 22.4C13.5866 22.4 13.9 22.0866 13.9 21.7C13.9 21.3134 13.5866 21 13.2 21C12.8134 21 12.5 21.3134 12.5 21.7C12.5 22.0866 12.8134 22.4 13.2 22.4Z" fill="url(#paint52_linear_1054_2326)"/>
<path opacity="0.56" d="M67.2 52.4C67.5866 52.4 67.9 52.0866 67.9 51.7C67.9 51.3134 67.5866 51 67.2 51C66.8134 51 66.5 51.3134 66.5 51.7C66.5 52.0866 66.8134 52.4 67.2 52.4Z" fill="url(#paint53_linear_1054_2326)"/>
<path opacity="0.56" d="M108.2 67.0001C108.587 67.0001 108.9 66.6867 108.9 66.3001C108.9 65.9135 108.587 65.6001 108.2 65.6001C107.813 65.6001 107.5 65.9135 107.5 66.3001C107.5 66.6867 107.813 67.0001 108.2 67.0001Z" fill="url(#paint54_linear_1054_2326)"/>
<path d="M53.2 38.4C53.5866 38.4 53.9 38.0866 53.9 37.7C53.9 37.3134 53.5866 37 53.2 37C52.8134 37 52.5 37.3134 52.5 37.7C52.5 38.0866 52.8134 38.4 53.2 38.4Z" fill="url(#paint55_linear_1054_2326)"/>
<path opacity="0.8" d="M31.6 47.0001C31.9866 47.0001 32.3 46.6867 32.3 46.3001C32.3 45.9135 31.9866 45.6001 31.6 45.6001C31.2134 45.6001 30.9 45.9135 30.9 46.3001C30.9 46.6867 31.2134 47.0001 31.6 47.0001Z" fill="url(#paint56_linear_1054_2326)"/>
<path opacity="0.8" d="M93.1 86.6001C93.6523 86.6001 94.1 86.1524 94.1 85.6001C94.1 85.0478 93.6523 84.6001 93.1 84.6001C92.5477 84.6001 92.1 85.0478 92.1 85.6001C92.1 86.1524 92.5477 86.6001 93.1 86.6001Z" fill="url(#paint57_linear_1054_2326)"/>
<path opacity="0.8" d="M80.8 113.6C81.0762 113.6 81.3 113.376 81.3 113.1C81.3 112.824 81.0762 112.6 80.8 112.6C80.5239 112.6 80.3 112.824 80.3 113.1C80.3 113.376 80.5239 113.6 80.8 113.6Z" fill="url(#paint58_linear_1054_2326)"/>
<path opacity="0.3" d="M19.2 101.8C19.4761 101.8 19.7 101.576 19.7 101.3C19.7 101.024 19.4761 100.8 19.2 100.8C18.9238 100.8 18.7 101.024 18.7 101.3C18.7 101.576 18.9238 101.8 19.2 101.8Z" fill="url(#paint59_linear_1054_2326)"/>
<path opacity="0.6" d="M57.5 104.8C58.0523 104.8 58.5 104.353 58.5 103.8C58.5 103.248 58.0523 102.8 57.5 102.8C56.9477 102.8 56.5 103.248 56.5 103.8C56.5 104.353 56.9477 104.8 57.5 104.8Z" fill="url(#paint60_linear_1054_2326)"/>
<path d="M29.3 86.6001C29.8523 86.6001 30.3 86.1524 30.3 85.6001C30.3 85.0478 29.8523 84.6001 29.3 84.6001C28.7478 84.6001 28.3 85.0478 28.3 85.6001C28.3 86.1524 28.7478 86.6001 29.3 86.6001Z" fill="url(#paint61_linear_1054_2326)"/>
<path d="M35.3 110.6C35.6313 110.6 35.9 110.331 35.9 110C35.9 109.669 35.6313 109.4 35.3 109.4C34.9686 109.4 34.7 109.669 34.7 110C34.7 110.331 34.9686 110.6 35.3 110.6Z" fill="url(#paint62_linear_1054_2326)"/>
<defs>
<linearGradient id="paint0_linear_1054_2326" x1="54.6709" y1="27.6988" x2="18.7026" y2="74" gradientUnits="userSpaceOnUse">
<stop stop-color="#C1FFF7"/>
<stop offset="1" stop-color="#93E9DE"/>
</linearGradient>
<linearGradient id="paint1_linear_1054_2326" x1="62.2219" y1="21.7731" x2="33.8932" y2="25.9269" gradientUnits="userSpaceOnUse">
<stop stop-color="#C1FFF7"/>
<stop offset="1" stop-color="#93E9DE"/>
</linearGradient>
<linearGradient id="paint2_linear_1054_2326" x1="70.2686" y1="35.9822" x2="59.8075" y2="37.5822" gradientUnits="userSpaceOnUse">
<stop stop-color="#C1FFF7"/>
<stop offset="1" stop-color="#93E9DE"/>
</linearGradient>
<linearGradient id="paint3_linear_1054_2326" x1="86.5365" y1="32.1559" x2="81.2559" y2="61.9353" gradientUnits="userSpaceOnUse">
<stop stop-color="#77EBFF"/>
<stop offset="1" stop-color="#4D86DE"/>
</linearGradient>
<linearGradient id="paint4_linear_1054_2326" x1="93.9092" y1="22.3811" x2="88.6759" y2="67.9199" gradientUnits="userSpaceOnUse">
<stop stop-color="#77EBFF"/>
<stop offset="1" stop-color="#4D86DE"/>
</linearGradient>
<linearGradient id="paint5_linear_1054_2326" x1="40.1969" y1="56.1004" x2="36.858" y2="74.2566" gradientUnits="userSpaceOnUse">
<stop stop-color="#77EBFF"/>
<stop offset="1" stop-color="#4D86DE"/>
</linearGradient>
<linearGradient id="paint6_linear_1054_2326" x1="40.9093" y1="60.0906" x2="37.3495" y2="74.7489" gradientUnits="userSpaceOnUse">
<stop stop-color="#77EBFF"/>
<stop offset="1" stop-color="#4D86DE"/>
</linearGradient>
<linearGradient id="paint7_linear_1054_2326" x1="44.0601" y1="53.6433" x2="44.0601" y2="69.5035" gradientUnits="userSpaceOnUse">
<stop stop-color="#77EBFF"/>
<stop offset="1" stop-color="#4D86DE"/>
</linearGradient>
<linearGradient id="paint8_linear_1054_2326" x1="44.6782" y1="56.5927" x2="44.2823" y2="64.1171" gradientUnits="userSpaceOnUse">
<stop stop-color="#77EBFF"/>
<stop offset="1" stop-color="#4D86DE"/>
</linearGradient>
<linearGradient id="paint9_linear_1054_2326" x1="51.5849" y1="62.0702" x2="50.4476" y2="64.1856" gradientUnits="userSpaceOnUse">
<stop stop-color="#77EBFF"/>
<stop offset="1" stop-color="#4D86DE"/>
</linearGradient>
<linearGradient id="paint10_linear_1054_2326" x1="45.069" y1="49.6707" x2="44.2456" y2="59.0588" gradientUnits="userSpaceOnUse">
<stop stop-color="#77EBFF"/>
<stop offset="1" stop-color="#4D86DE"/>
</linearGradient>
<linearGradient id="paint11_linear_1054_2326" x1="44.0571" y1="26.3473" x2="42.4787" y2="57.5495" gradientUnits="userSpaceOnUse">
<stop stop-color="#77EBFF"/>
<stop offset="1" stop-color="#4D86DE"/>
</linearGradient>
<linearGradient id="paint12_linear_1054_2326" x1="5.20005" y1="56.2071" x2="5.20005" y2="73.1232" gradientUnits="userSpaceOnUse">
<stop stop-color="#77EBFF"/>
<stop offset="1" stop-color="#4D86DE"/>
</linearGradient>
<linearGradient id="paint13_linear_1054_2326" x1="6.29944" y1="45.0738" x2="4.90987" y2="73.405" gradientUnits="userSpaceOnUse">
<stop stop-color="#77EBFF"/>
<stop offset="1" stop-color="#4D86DE"/>
</linearGradient>
<linearGradient id="paint14_linear_1054_2326" x1="29.2" y1="52.2071" x2="29.2" y2="69.1232" gradientUnits="userSpaceOnUse">
<stop stop-color="#77EBFF"/>
<stop offset="1" stop-color="#4D86DE"/>
</linearGradient>
<linearGradient id="paint15_linear_1054_2326" x1="29.1619" y1="30.3716" x2="27.495" y2="70.0639" gradientUnits="userSpaceOnUse">
<stop stop-color="#77EBFF"/>
<stop offset="1" stop-color="#4D86DE"/>
</linearGradient>
<linearGradient id="paint16_linear_1054_2326" x1="104.001" y1="70.2572" x2="72.1047" y2="154.253" gradientUnits="userSpaceOnUse">
<stop stop-color="#91F6FF"/>
<stop offset="1" stop-color="#4D86DE"/>
</linearGradient>
<linearGradient id="paint17_linear_1054_2326" x1="24.4374" y1="94.6803" x2="24.4374" y2="81.2907" gradientUnits="userSpaceOnUse">
<stop stop-color="#78CEF3" stop-opacity="0"/>
<stop offset="1" stop-color="#4D86DE"/>
</linearGradient>
<linearGradient id="paint18_linear_1054_2326" x1="92.9754" y1="70.8315" x2="92.6348" y2="68.4006" gradientUnits="userSpaceOnUse">
<stop stop-color="#91F6FF" stop-opacity="0"/>
<stop offset="1" stop-color="#4D86DE"/>
</linearGradient>
<linearGradient id="paint19_linear_1054_2326" x1="106" y1="92.0848" x2="106" y2="108.349" gradientUnits="userSpaceOnUse">
<stop stop-color="#77EBFF"/>
<stop offset="1" stop-color="#4D86DE"/>
</linearGradient>
<linearGradient id="paint20_linear_1054_2326" x1="105.239" y1="55.6989" x2="103.064" y2="111.598" gradientUnits="userSpaceOnUse">
<stop stop-color="#77EBFF"/>
<stop offset="1" stop-color="#4D86DE"/>
</linearGradient>
<linearGradient id="paint21_linear_1054_2326" x1="62" y1="116.987" x2="62" y2="129.289" gradientUnits="userSpaceOnUse">
<stop stop-color="#77EBFF"/>
<stop offset="1" stop-color="#4D86DE"/>
</linearGradient>
<linearGradient id="paint22_linear_1054_2326" x1="62.7983" y1="77.9346" x2="55.2819" y2="132.802" gradientUnits="userSpaceOnUse">
<stop stop-color="#7BD3F4"/>
<stop offset="1" stop-color="#4D86DE"/>
</linearGradient>
<linearGradient id="paint23_linear_1054_2326" x1="30.3" y1="118.414" x2="30.3" y2="124.128" gradientUnits="userSpaceOnUse">
<stop stop-color="#77EBFF"/>
<stop offset="1" stop-color="#4D86DE"/>
</linearGradient>
<linearGradient id="paint24_linear_1054_2326" x1="31.1084" y1="91.5655" x2="26.4908" y2="126.993" gradientUnits="userSpaceOnUse">
<stop stop-color="#7BD3F4"/>
<stop offset="1" stop-color="#4D86DE"/>
</linearGradient>
<linearGradient id="paint25_linear_1054_2326" x1="115.6" y1="73.4245" x2="115.6" y2="93.8462" gradientUnits="userSpaceOnUse">
<stop stop-color="#77EBFF"/>
<stop offset="1" stop-color="#4D86DE"/>
</linearGradient>
<linearGradient id="paint26_linear_1054_2326" x1="113.387" y1="63.3578" x2="112.464" y2="87.9975" gradientUnits="userSpaceOnUse">
<stop stop-color="#77EBFF"/>
<stop offset="1" stop-color="#4D86DE"/>
</linearGradient>
<linearGradient id="paint27_linear_1054_2326" x1="114.044" y1="51.0267" x2="112.176" y2="80.2848" gradientUnits="userSpaceOnUse">
<stop stop-color="#77EBFF"/>
<stop offset="1" stop-color="#4D86DE"/>
</linearGradient>
<linearGradient id="paint28_linear_1054_2326" x1="112.729" y1="40.5347" x2="110.806" y2="74.5138" gradientUnits="userSpaceOnUse">
<stop stop-color="#77EBFF"/>
<stop offset="1" stop-color="#4D86DE"/>
</linearGradient>
<linearGradient id="paint29_linear_1054_2326" x1="95.2638" y1="104.755" x2="95.2638" y2="118.474" gradientUnits="userSpaceOnUse">
<stop stop-color="#77EBFF"/>
<stop offset="1" stop-color="#4D86DE"/>
</linearGradient>
<linearGradient id="paint30_linear_1054_2326" x1="95.3853" y1="103.105" x2="95.199" y2="113.567" gradientUnits="userSpaceOnUse">
<stop stop-color="#77EBFF"/>
<stop offset="1" stop-color="#4D86DE"/>
</linearGradient>
<linearGradient id="paint31_linear_1054_2326" x1="103.252" y1="111.407" x2="102.045" y2="113.655" gradientUnits="userSpaceOnUse">
<stop stop-color="#77EBFF"/>
<stop offset="1" stop-color="#4D86DE"/>
</linearGradient>
<linearGradient id="paint32_linear_1054_2326" x1="96.3177" y1="93.6768" x2="95.4524" y2="108.181" gradientUnits="userSpaceOnUse">
<stop stop-color="#77EBFF"/>
<stop offset="1" stop-color="#4D86DE"/>
</linearGradient>
<linearGradient id="paint33_linear_1054_2326" x1="95.2603" y1="73.4171" x2="93.5848" y2="106.603" gradientUnits="userSpaceOnUse">
<stop stop-color="#77EBFF"/>
<stop offset="1" stop-color="#4D86DE"/>
</linearGradient>
<linearGradient id="paint34_linear_1054_2326" x1="22.9034" y1="101.596" x2="22.0163" y2="122.256" gradientUnits="userSpaceOnUse">
<stop stop-color="#77EBFF"/>
<stop offset="1" stop-color="#4D86DE"/>
</linearGradient>
<linearGradient id="paint35_linear_1054_2326" x1="21.4197" y1="81.5061" x2="18.6366" y2="120.115" gradientUnits="userSpaceOnUse">
<stop stop-color="#77EBFF"/>
<stop offset="1" stop-color="#4D86DE"/>
</linearGradient>
<linearGradient id="paint36_linear_1054_2326" x1="40" y1="116.345" x2="40" y2="126.794" gradientUnits="userSpaceOnUse">
<stop stop-color="#77EBFF"/>
<stop offset="1" stop-color="#4D86DE"/>
</linearGradient>
<linearGradient id="paint37_linear_1054_2326" x1="40.2" y1="113.435" x2="40.0332" y2="122.715" gradientUnits="userSpaceOnUse">
<stop stop-color="#77EBFF"/>
<stop offset="1" stop-color="#4D86DE"/>
</linearGradient>
<linearGradient id="paint38_linear_1054_2326" x1="47.2897" y1="120.869" x2="46.1761" y2="122.824" gradientUnits="userSpaceOnUse">
<stop stop-color="#77EBFF"/>
<stop offset="1" stop-color="#4D86DE"/>
</linearGradient>
<linearGradient id="paint39_linear_1054_2326" x1="41.09" y1="104.761" x2="40.2978" y2="118.018" gradientUnits="userSpaceOnUse">
<stop stop-color="#77EBFF"/>
<stop offset="1" stop-color="#4D86DE"/>
</linearGradient>
<linearGradient id="paint40_linear_1054_2326" x1="40.4109" y1="72.3314" x2="36.9238" y2="116.36" gradientUnits="userSpaceOnUse">
<stop stop-color="#77EBFF"/>
<stop offset="1" stop-color="#4D86DE"/>
</linearGradient>
<linearGradient id="paint41_linear_1054_2326" x1="77" y1="107.929" x2="77" y2="125.478" gradientUnits="userSpaceOnUse">
<stop stop-color="#77EBFF"/>
<stop offset="1" stop-color="#4D86DE"/>
</linearGradient>
<linearGradient id="paint42_linear_1054_2326" x1="78.8879" y1="101.716" x2="77.8473" y2="118.921" gradientUnits="userSpaceOnUse">
<stop stop-color="#77EBFF"/>
<stop offset="1" stop-color="#4D86DE"/>
</linearGradient>
<linearGradient id="paint43_linear_1054_2326" x1="89.5025" y1="115.463" x2="87.6142" y2="118.983" gradientUnits="userSpaceOnUse">
<stop stop-color="#77EBFF"/>
<stop offset="1" stop-color="#4D86DE"/>
</linearGradient>
<linearGradient id="paint44_linear_1054_2326" x1="79.1865" y1="92.0761" x2="77.5902" y2="110.488" gradientUnits="userSpaceOnUse">
<stop stop-color="#77EBFF"/>
<stop offset="1" stop-color="#4D86DE"/>
</linearGradient>
<linearGradient id="paint45_linear_1054_2326" x1="76.9943" y1="55.9818" x2="74.3718" y2="107.942" gradientUnits="userSpaceOnUse">
<stop stop-color="#77EBFF"/>
<stop offset="1" stop-color="#4D86DE"/>
</linearGradient>
<linearGradient id="paint46_linear_1054_2326" x1="16.6066" y1="47.1366" x2="16.6066" y2="67.678" gradientUnits="userSpaceOnUse">
<stop stop-color="#77EBFF"/>
<stop offset="1" stop-color="#4D86DE"/>
</linearGradient>
<linearGradient id="paint47_linear_1054_2326" x1="17.6268" y1="47.6996" x2="16.9661" y2="60.2852" gradientUnits="userSpaceOnUse">
<stop stop-color="#77EBFF"/>
<stop offset="1" stop-color="#4D86DE"/>
</linearGradient>
<linearGradient id="paint48_linear_1054_2326" x1="29.1026" y1="56.8633" x2="27.2143" y2="60.3832" gradientUnits="userSpaceOnUse">
<stop stop-color="#77EBFF"/>
<stop offset="1" stop-color="#4D86DE"/>
</linearGradient>
<linearGradient id="paint49_linear_1054_2326" x1="18.2763" y1="36.1635" x2="16.9021" y2="51.8651" gradientUnits="userSpaceOnUse">
<stop stop-color="#77EBFF"/>
<stop offset="1" stop-color="#4D86DE"/>
</linearGradient>
<linearGradient id="paint50_linear_1054_2326" x1="16.5942" y1="-2.61825" x2="13.9718" y2="49.3416" gradientUnits="userSpaceOnUse">
<stop stop-color="#77EBFF"/>
<stop offset="1" stop-color="#4D86DE"/>
</linearGradient>
<linearGradient id="paint51_linear_1054_2326" x1="54.5" y1="73.3051" x2="55.9" y2="74.4" gradientUnits="userSpaceOnUse">
<stop stop-color="#CBF1FF"/>
<stop offset="1" stop-color="#7BD2F4"/>
</linearGradient>
<linearGradient id="paint52_linear_1054_2326" x1="12.5" y1="21.3051" x2="13.9" y2="22.4" gradientUnits="userSpaceOnUse">
<stop stop-color="#CBF1FF"/>
<stop offset="1" stop-color="#7BD2F4"/>
</linearGradient>
<linearGradient id="paint53_linear_1054_2326" x1="66.5" y1="51.3051" x2="67.9" y2="52.4" gradientUnits="userSpaceOnUse">
<stop stop-color="#CBF1FF"/>
<stop offset="1" stop-color="#7BD2F4"/>
</linearGradient>
<linearGradient id="paint54_linear_1054_2326" x1="107.5" y1="65.9052" x2="108.9" y2="67.0001" gradientUnits="userSpaceOnUse">
<stop stop-color="#CBF1FF"/>
<stop offset="1" stop-color="#7BD2F4"/>
</linearGradient>
<linearGradient id="paint55_linear_1054_2326" x1="52.5" y1="37.3051" x2="55.0081" y2="39.5274" gradientUnits="userSpaceOnUse">
<stop stop-color="#E4FFFC"/>
<stop offset="1" stop-color="#B8FBF3"/>
</linearGradient>
<linearGradient id="paint56_linear_1054_2326" x1="30.9" y1="45.9052" x2="33.4081" y2="48.1275" gradientUnits="userSpaceOnUse">
<stop stop-color="#E4FFFC"/>
<stop offset="1" stop-color="#B8FBF3"/>
</linearGradient>
<linearGradient id="paint57_linear_1054_2326" x1="92.1" y1="85.036" x2="94.1" y2="86.6001" gradientUnits="userSpaceOnUse">
<stop stop-color="#CBF1FF"/>
<stop offset="1" stop-color="#7BD2F4"/>
</linearGradient>
<linearGradient id="paint58_linear_1054_2326" x1="80.3" y1="112.818" x2="81.3" y2="113.6" gradientUnits="userSpaceOnUse">
<stop stop-color="#CBF1FF"/>
<stop offset="1" stop-color="#7BD2F4"/>
</linearGradient>
<linearGradient id="paint59_linear_1054_2326" x1="18.7" y1="101.018" x2="19.7" y2="101.8" gradientUnits="userSpaceOnUse">
<stop stop-color="#CBF1FF"/>
<stop offset="1" stop-color="#7BD2F4"/>
</linearGradient>
<linearGradient id="paint60_linear_1054_2326" x1="56.5" y1="103.236" x2="58.5" y2="104.8" gradientUnits="userSpaceOnUse">
<stop stop-color="#CBF1FF"/>
<stop offset="1" stop-color="#7BD2F4"/>
</linearGradient>
<linearGradient id="paint61_linear_1054_2326" x1="28.3" y1="85.036" x2="30.3" y2="86.6001" gradientUnits="userSpaceOnUse">
<stop stop-color="#CBF1FF"/>
<stop offset="1" stop-color="#7BD2F4"/>
</linearGradient>
<linearGradient id="paint62_linear_1054_2326" x1="34.7" y1="109.661" x2="35.9" y2="110.6" gradientUnits="userSpaceOnUse">
<stop stop-color="#CBF1FF"/>
<stop offset="1" stop-color="#7BD2F4"/>
</linearGradient>
</defs>
</svg>
