<svg width="93" height="84" viewBox="0 0 93 84" fill="none" xmlns="http://www.w3.org/2000/svg">
<path d="M46.0001 84C69.1961 84 88.0001 65.196 88.0001 42C88.0001 18.804 69.1961 0 46.0001 0C22.8042 0 4.00012 18.804 4.00012 42C4.00012 65.196 22.8042 84 46.0001 84Z" fill="url(#paint0_linear_1054_4543)"/>
<path fill-rule="evenodd" clip-rule="evenodd" d="M4.33685 47.3439C13.1231 44.9245 23.0947 45.3869 34.2517 48.7313C53.6728 54.5528 67.9743 37.7528 84.3357 48.7313C85.3018 49.3795 86.2191 50.0522 87.0875 50.7493C83.0622 69.7459 66.1958 84.0001 46.0001 84.0001C24.6145 84.0001 6.96195 68.0166 4.33686 47.3439H4.33685Z" fill="url(#paint1_linear_1054_4543)"/>
<path fill-rule="evenodd" clip-rule="evenodd" d="M6.54029 56.4182C13.8409 51.604 21.259 50.4619 28.7947 52.9919C40.4764 56.9137 46.9155 47.7032 62.7647 56.9137C73.7931 63.3227 79.65 55.3111 85.5512 56.166C79.7389 72.392 64.2252 84.0001 46.0001 84.0001C27.8697 84.0001 12.4224 72.5121 6.54028 56.4182L6.54029 56.4182Z" fill="url(#paint2_linear_1054_4543)"/>
<path fill-rule="evenodd" clip-rule="evenodd" d="M5.89417 54.5084C28.3188 51.6432 27.0467 60.4163 50.6948 63.4485C65.4374 65.3388 77.4491 60.709 84.4924 58.8296C78.0046 73.6474 63.2113 84 46.0001 84C27.1603 84 11.2177 71.5955 5.89417 54.5084Z" fill="url(#paint3_linear_1054_4543)"/>
<path fill-rule="evenodd" clip-rule="evenodd" d="M19.5132 74.5971C18.6919 73.9289 17.8963 73.2303 17.1282 72.503C19.5393 71.4606 27.0716 70.7002 35.9901 70.7002C46.8535 70.7002 55.6601 71.8284 55.6601 73.2202C55.6601 74.6119 46.8535 75.7402 35.9901 75.7402C29.0929 75.7402 23.0248 75.2854 19.5132 74.5971Z" fill="url(#paint4_linear_1054_4543)"/>
<path opacity="0.2" d="M78.7601 30.0999C86.4148 30.0999 92.6201 23.8946 92.6201 16.2399C92.6201 8.58522 86.4148 2.37988 78.7601 2.37988C71.1055 2.37988 64.9001 8.58522 64.9001 16.2399C64.9001 23.8946 71.1055 30.0999 78.7601 30.0999Z" fill="url(#paint5_linear_1054_4543)"/>
<path fill-rule="evenodd" clip-rule="evenodd" d="M4.38702 36.2748C7.17947 15.7872 24.7461 0 46.0001 0C54.2698 0 61.9814 2.39009 68.4816 6.51718C64.297 8.83114 61.3161 12.0495 59.539 16.1722C55.3599 25.8677 47.8483 30.9792 33.6258 27.7573C22.2485 25.18 11.0007 28.804 4.38702 36.2748Z" fill="url(#paint6_linear_1054_4543)"/>
<path fill-rule="evenodd" clip-rule="evenodd" d="M0.52533 34.4285C0.995706 35.0214 1.6838 35.4976 2.58962 35.8572C3.49544 36.2168 4.12412 36.2168 4.47564 35.8572C4.48878 36.4965 4.85113 36.96 5.5627 37.2477C6.63004 37.6793 16.0216 40.9662 17.5208 39.6036C17.5656 40.2163 18.4421 40.7116 20.1503 41.0893C22.7128 41.6559 33.7188 43.9287 34.5174 42.509C34.8458 43.2365 35.5757 43.6664 36.7071 43.7987C38.4041 43.9971 47.0266 45.0837 48.0191 43.6091C48.2917 43.9992 48.7383 44.1943 49.3589 44.1943C50.2898 44.1943 52.2762 44.1835 52.672 43.7987C52.9359 43.5421 50.5644 41.4083 45.5574 37.3971L33.0697 31.5561L11.6222 28.8564L0.52533 34.4285Z" fill="url(#paint7_linear_1054_4543)"/>
<path fill-rule="evenodd" clip-rule="evenodd" d="M28.6823 22.9317C28.7262 22.6256 29.01 22.413 29.3161 22.4569C29.6223 22.5008 29.8348 22.7846 29.7909 23.0908L29.0544 28.2245C29.0105 28.5307 28.7267 28.7432 28.4206 28.6993C28.1144 28.6554 27.9018 28.3716 27.9458 28.0655L28.6823 22.9317ZM26.5677 35.3727C26.621 35.068 26.9112 34.8643 27.2159 34.9176C27.5205 34.971 27.7243 35.2612 27.6709 35.5658L21.0438 73.4257C20.9905 73.7303 20.7003 73.934 20.3957 73.8807C20.091 73.8274 19.8873 73.5372 19.9406 73.2326L26.5677 35.3727Z" fill="url(#paint8_linear_1054_4543)"/>
<path fill-rule="evenodd" clip-rule="evenodd" d="M0.9081 32.8309C0.401496 33.309 0.148193 33.783 0.148193 34.253C0.148193 34.9581 0.271107 34.881 2.17694 34.881C3.44749 34.881 6.6174 34.8232 11.6867 34.7077C12.6928 34.6715 13.4348 33.9431 13.9127 32.5226C14.1065 34.4687 14.9488 35.5176 16.4396 35.6692C18.6757 35.8967 26.303 36.1685 31.6368 37.6203C36.9705 39.0721 39.0307 40.522 40.1747 37.162C40.4008 38.5915 41.0949 39.5561 42.257 40.0558C43.4191 40.5555 46.6373 41.7938 51.9117 43.7708C52.3397 43.9853 52.6521 43.9019 52.8487 43.5207C53.1436 42.9489 52.0812 40.8899 50.9365 39.3708C49.7918 37.8517 45.9261 29.6852 34.9195 26.2428C33.8413 25.0176 32.483 24.4049 30.8448 24.4049C28.3874 24.4049 25.6567 22.5055 22.8377 24.0189C18.916 23.8406 15.4745 24.4497 12.5133 25.8462C9.55219 27.2428 5.68378 29.571 0.9081 32.8309Z" fill="url(#paint9_linear_1054_4543)"/>
<path fill-rule="evenodd" clip-rule="evenodd" d="M37.0881 71.6534L33.6336 66.4549C33.5296 66.2983 33.5727 66.0874 33.7299 65.9837C33.8872 65.8801 34.099 65.9231 34.2031 66.0796L37.6575 71.2781C37.7615 71.4347 37.7184 71.6456 37.5612 71.7493C37.404 71.8529 37.1921 71.8099 37.0881 71.6534Z" fill="url(#paint10_linear_1054_4543)"/>
<path fill-rule="evenodd" clip-rule="evenodd" d="M29.7293 73.763C29.6025 73.902 29.3866 73.9123 29.2471 73.786C29.1075 73.6598 29.0972 73.4447 29.224 73.3057L36.4821 65.3506C36.6089 65.2116 36.8248 65.2013 36.9643 65.3276C37.1039 65.4539 37.1142 65.6689 36.9874 65.8079L29.7293 73.763Z" fill="url(#paint11_linear_1054_4543)"/>
<path fill-rule="evenodd" clip-rule="evenodd" d="M39.3703 65.748H47.7034C47.0203 67.8933 45.7593 68.9347 43.9203 68.8723C43.9203 68.8723 40.8659 68.8723 34.7571 68.8723L39.3703 65.748Z" fill="url(#paint12_linear_1054_4543)"/>
<path fill-rule="evenodd" clip-rule="evenodd" d="M28.4668 57.2891H38.2138C39.0779 64.0533 40.9801 67.9144 43.9204 68.8721H34.7572C32.7967 68.6354 31.3691 67.4993 30.4744 65.4638C29.5797 63.4283 28.9105 60.7034 28.4668 57.2891Z" fill="url(#paint13_linear_1054_4543)"/>
<path fill-rule="evenodd" clip-rule="evenodd" d="M37.8709 57.9168C37.7679 57.7595 37.8125 57.5489 37.9704 57.4463C38.1284 57.3438 38.3399 57.3882 38.4429 57.5455L47.556 71.4691C47.659 71.6264 47.6144 71.8371 47.4564 71.9396C47.2985 72.0421 47.087 71.9977 46.984 71.8404L37.8709 57.9168Z" fill="url(#paint14_linear_1054_4543)"/>
<path fill-rule="evenodd" clip-rule="evenodd" d="M40.4127 73.8084C40.2859 73.9474 40.07 73.9577 39.9305 73.8314C39.7909 73.7052 39.7806 73.4901 39.9074 73.3512L47.1655 65.396C47.2923 65.2571 47.5082 65.2468 47.6477 65.373C47.7873 65.4993 47.7976 65.7143 47.6708 65.8533L40.4127 73.8084Z" fill="url(#paint15_linear_1054_4543)"/>
<path opacity="0.2" d="M78.7601 30.0999C86.4148 30.0999 92.6201 23.8946 92.6201 16.2399C92.6201 8.58522 86.4148 2.37988 78.7601 2.37988C71.1055 2.37988 64.9001 8.58522 64.9001 16.2399C64.9001 23.8946 71.1055 30.0999 78.7601 30.0999Z" fill="url(#paint16_linear_1054_4543)"/>
<path d="M78.7601 26.0399C84.1725 26.0399 88.5601 21.6523 88.5601 16.2399C88.5601 10.8276 84.1725 6.43994 78.7601 6.43994C73.3477 6.43994 68.9601 10.8276 68.9601 16.2399C68.9601 21.6523 73.3477 26.0399 78.7601 26.0399Z" fill="url(#paint17_linear_1054_4543)"/>
<defs>
<linearGradient id="paint0_linear_1054_4543" x1="41.9198" y1="9.58916" x2="16.742" y2="42" gradientUnits="userSpaceOnUse">
<stop stop-color="#C1FFF7"/>
<stop offset="1" stop-color="#93E9DE"/>
</linearGradient>
<linearGradient id="paint1_linear_1054_4543" x1="55.9724" y1="60.4155" x2="47.6097" y2="71.8684" gradientUnits="userSpaceOnUse">
<stop stop-color="#5A93EA"/>
<stop offset="1" stop-color="#3768B4"/>
</linearGradient>
<linearGradient id="paint2_linear_1054_4543" x1="41.2104" y1="64.2461" x2="34.6264" y2="73.6941" gradientUnits="userSpaceOnUse">
<stop stop-color="#5A93EA"/>
<stop offset="1" stop-color="#3768B4"/>
</linearGradient>
<linearGradient id="paint3_linear_1054_4543" x1="45.1933" y1="66.7726" x2="43.9596" y2="71.1925" gradientUnits="userSpaceOnUse">
<stop stop-color="#F9BB49"/>
<stop offset="1" stop-color="#F08523"/>
</linearGradient>
<linearGradient id="paint4_linear_1054_4543" x1="30.2953" y1="75.7402" x2="30.2953" y2="70.7002" gradientUnits="userSpaceOnUse">
<stop stop-color="#E87E1E" stop-opacity="0"/>
<stop offset="1" stop-color="#F07023"/>
</linearGradient>
<linearGradient id="paint5_linear_1054_4543" x1="78.7601" y1="2.37988" x2="76.6679" y2="21.9793" gradientUnits="userSpaceOnUse">
<stop stop-color="#F9BB49"/>
<stop offset="1" stop-color="#F08523"/>
</linearGradient>
<linearGradient id="paint6_linear_1054_4543" x1="40.7011" y1="20.4558" x2="32.735" y2="6.99156" gradientUnits="userSpaceOnUse">
<stop stop-color="#D3FFFA"/>
<stop offset="1" stop-color="#B7FFF6"/>
</linearGradient>
<linearGradient id="paint7_linear_1054_4543" x1="25.9851" y1="37.035" x2="26.2573" y2="35.496" gradientUnits="userSpaceOnUse">
<stop stop-color="#5A93EA"/>
<stop offset="1" stop-color="#3768B4"/>
</linearGradient>
<linearGradient id="paint8_linear_1054_4543" x1="24.8373" y1="57.708" x2="22.3235" y2="19.4523" gradientUnits="userSpaceOnUse">
<stop stop-color="#DB593D"/>
<stop offset="1" stop-color="#F88461"/>
</linearGradient>
<linearGradient id="paint9_linear_1054_4543" x1="28.0943" y1="31.8905" x2="27.3736" y2="35.7379" gradientUnits="userSpaceOnUse">
<stop stop-color="#77EBFF"/>
<stop offset="1" stop-color="#4D86DE"/>
</linearGradient>
<linearGradient id="paint10_linear_1054_4543" x1="35.4926" y1="69.9565" x2="34.4633" y2="65.6881" gradientUnits="userSpaceOnUse">
<stop stop-color="#DB593D"/>
<stop offset="1" stop-color="#F88461"/>
</linearGradient>
<linearGradient id="paint11_linear_1054_4543" x1="32.6046" y1="71.158" x2="30.6009" y2="64.799" gradientUnits="userSpaceOnUse">
<stop stop-color="#DB593D"/>
<stop offset="1" stop-color="#F88461"/>
</linearGradient>
<linearGradient id="paint12_linear_1054_4543" x1="41.0755" y1="67.3676" x2="41.1343" y2="67.0978" gradientUnits="userSpaceOnUse">
<stop stop-color="#5A93EA"/>
<stop offset="1" stop-color="#3768B4"/>
</linearGradient>
<linearGradient id="paint13_linear_1054_4543" x1="36.6538" y1="59.3354" x2="35.9869" y2="66.2183" gradientUnits="userSpaceOnUse">
<stop stop-color="#77EBFF"/>
<stop offset="1" stop-color="#4D86DE"/>
</linearGradient>
<linearGradient id="paint14_linear_1054_4543" x1="42.3845" y1="67.4008" x2="39.9469" y2="56.7956" gradientUnits="userSpaceOnUse">
<stop stop-color="#DB593D"/>
<stop offset="1" stop-color="#F88461"/>
</linearGradient>
<linearGradient id="paint15_linear_1054_4543" x1="43.288" y1="71.2034" x2="41.2843" y2="64.8444" gradientUnits="userSpaceOnUse">
<stop stop-color="#DB593D"/>
<stop offset="1" stop-color="#F88461"/>
</linearGradient>
<linearGradient id="paint16_linear_1054_4543" x1="78.7601" y1="2.37988" x2="76.6679" y2="21.9793" gradientUnits="userSpaceOnUse">
<stop stop-color="#F9BB49"/>
<stop offset="1" stop-color="#F08523"/>
</linearGradient>
<linearGradient id="paint17_linear_1054_4543" x1="78.7601" y1="6.43994" x2="77.2808" y2="20.2981" gradientUnits="userSpaceOnUse">
<stop stop-color="#F9BB49"/>
<stop offset="1" stop-color="#F08523"/>
</linearGradient>
</defs>
</svg>
