<svg width="257" height="269" viewBox="0 0 257 269" fill="none" xmlns="http://www.w3.org/2000/svg">
<path d="M172.209 50.4589C186.796 59.648 198.996 72.4628 206.011 88.2114C212.901 103.678 212.73 120.868 211.08 137.719C209.398 154.906 206.412 172.233 196.41 186.31C185.977 200.993 171.243 212.754 154.019 218.023C136.888 223.264 118.73 220.02 101.43 215.368C84.1175 210.713 66.0759 205.025 54.5643 191.282C43.2164 177.734 42.7601 158.929 39.592 141.543C36.3725 123.874 30.0262 105.854 35.9056 88.884C41.9497 71.4388 56.1125 57.8421 71.9046 48.2778C87.2447 38.9872 105.245 35.6403 123.175 36.0302C140.561 36.4082 157.495 41.1901 172.209 50.4589Z" fill="#F4F5F6"/>
<g filter="url(#filter0_d_1054_6610)">
<g clip-path="url(#clip0_1054_6610)">
<rect width="120" height="166" rx="24" transform="matrix(-0.965926 -0.258819 -0.258819 0.965926 208.745 34.7124)" fill="#FCFCFD"/>
<path d="M115.206 135.607C93.0591 129.673 79.9161 106.909 85.8503 84.7616C91.7846 62.6147 114.549 49.4717 136.696 55.406C158.843 61.3402 171.986 84.1045 166.051 106.251C160.117 128.398 137.353 141.541 115.206 135.607Z" fill="url(#paint0_linear_1054_6610)"/>
<path fill-rule="evenodd" clip-rule="evenodd" d="M167.379 92.6518C162.791 93.6909 158.148 91.9277 153.45 87.3621C145.656 79.7876 143.976 75.7385 133.284 80.1141C122.592 84.4898 117.76 76.4144 111.938 69.4666C109.407 66.4454 105.393 63.5396 101.06 62.2782C93.8646 67.6608 88.3566 75.4082 85.8503 84.7615C83.9255 91.9452 84.0078 99.1938 85.7534 105.912C122.385 111.679 147.604 115.414 161.411 117.117C163.421 113.815 165 110.174 166.051 106.251C167.273 101.694 167.686 97.1097 167.379 92.6518Z" fill="url(#paint1_linear_1054_6610)"/>
<path fill-rule="evenodd" clip-rule="evenodd" d="M100.366 77.4065L114.047 71.8287L118.069 68.1287L121.728 72.4886L125.606 90.9838L96.164 85.3824L100.366 77.4065Z" fill="url(#paint2_linear_1054_6610)"/>
<path opacity="0.1" d="M122.84 106.851C114.756 104.685 109.959 96.3756 112.125 88.2919C114.291 80.2083 122.6 75.4111 130.683 77.5771C138.767 79.7431 143.564 88.0521 141.398 96.1357C139.232 104.219 130.923 109.017 122.84 106.851Z" fill="url(#paint3_linear_1054_6610)"/>
<path d="M124.232 101.922C118.843 100.478 115.645 94.9392 117.089 89.5501C118.533 84.161 124.072 80.9629 129.461 82.4069C134.85 83.8509 138.048 89.3902 136.604 94.7793C135.16 100.168 129.621 103.366 124.232 101.922Z" fill="url(#paint4_linear_1054_6610)"/>
<path fill-rule="evenodd" clip-rule="evenodd" d="M110.694 83.5364L117.507 75.9714L118.069 68.1287L121.728 72.4886L125.606 90.9838L96.164 85.3824L110.694 83.5364Z" fill="url(#paint5_linear_1054_6610)"/>
<path fill-rule="evenodd" clip-rule="evenodd" d="M156.633 109.136C160.364 102.222 161.711 95.7931 160.673 89.8482L161.17 89.6048C163.272 95.2887 163.175 101.302 160.879 107.644L158.473 108.734L156.633 109.136Z" fill="url(#paint6_linear_1054_6610)"/>
<path fill-rule="evenodd" clip-rule="evenodd" d="M156.633 109.135C160.364 102.222 161.711 95.7928 160.674 89.8479C162.232 95.4263 161.498 101.722 158.473 108.734C158.473 108.734 157.86 108.868 156.633 109.135Z" fill="url(#paint7_linear_1054_6610)"/>
<path fill-rule="evenodd" clip-rule="evenodd" d="M161.096 89.9656C159.395 90.6963 158.516 91.5997 158.46 92.6759C157.804 92.1091 157.567 91.4831 157.75 90.7981C158.026 89.7706 159.521 88.901 161.013 89.6952L161.05 89.828L161.096 89.9656Z" fill="url(#paint8_linear_1054_6610)"/>
<path fill-rule="evenodd" clip-rule="evenodd" d="M161.321 89.5507C159.432 87.6568 157.681 87.4902 156.067 89.0511C157.508 88.8993 158.604 89.0043 159.354 89.366C160.104 89.7277 160.747 89.8528 161.283 89.7411L161.321 89.5507Z" fill="url(#paint9_linear_1054_6610)"/>
<path fill-rule="evenodd" clip-rule="evenodd" d="M161.062 90.0176C161.334 88.5646 161.188 87.4854 160.623 86.7801C160.057 86.0747 158.995 85.9442 157.435 86.3887C159.14 87.0431 160.118 87.8597 160.37 88.8385C160.622 89.8174 160.853 90.2104 161.062 90.0176Z" fill="url(#paint10_linear_1054_6610)"/>
<path fill-rule="evenodd" clip-rule="evenodd" d="M161.262 89.6175C162.695 88.1149 163.857 87.812 164.747 88.7088C164.716 87.6424 164.273 87.0058 163.417 86.7992C162.561 86.5925 161.734 87.5179 160.935 89.5752L161.262 89.6175Z" fill="url(#paint11_linear_1054_6610)"/>
<path fill-rule="evenodd" clip-rule="evenodd" d="M161.192 89.9138C162.934 89.8274 163.898 90.5361 164.085 92.0398C164.867 91.0812 164.844 90.199 164.015 89.393C163.187 88.587 162.125 88.6849 160.829 89.6866L161.192 89.9138Z" fill="url(#paint12_linear_1054_6610)"/>
<path d="M161.186 90.1911C160.964 90.1318 160.833 89.9042 160.892 89.6827C160.952 89.4612 161.179 89.3298 161.401 89.3891C161.622 89.4485 161.754 89.6761 161.694 89.8976C161.635 90.1191 161.407 90.2505 161.186 90.1911Z" fill="url(#paint13_linear_1054_6610)"/>
<path d="M160.615 90.1819C160.394 90.1225 160.262 89.8949 160.322 89.6734C160.381 89.4519 160.609 89.3205 160.83 89.3799C161.052 89.4392 161.183 89.6668 161.124 89.8883C161.064 90.1098 160.837 90.2412 160.615 90.1819Z" fill="url(#paint14_linear_1054_6610)"/>
<path fill-rule="evenodd" clip-rule="evenodd" d="M95.2711 67.525C90.9291 72.2777 87.6316 78.1142 85.8503 84.7618C85.0722 87.6658 84.6221 90.5804 84.4773 93.4662C87.9021 94.2765 90.0579 94.4884 90.9445 94.1017C92.6492 93.3582 104.639 92.6287 126.914 91.9132C119.586 86.4366 114.362 82.6493 111.244 80.5511L103.238 69.7135L98.5891 70.3991L95.2711 67.525Z" fill="url(#paint15_linear_1054_6610)"/>
<path fill-rule="evenodd" clip-rule="evenodd" d="M94.4672 68.4311C90.5218 73.0123 87.52 78.5306 85.8504 84.7616C85.0722 87.6656 84.6221 90.5802 84.4773 93.4661C87.9022 94.2764 90.0579 94.4882 90.9446 94.1015C92.6493 93.3581 104.639 92.6286 126.914 91.913L107.845 83.1591L95.3871 81.3078L97.84 75.0188L94.4672 68.4311Z" fill="url(#paint16_linear_1054_6610)"/>
<path fill-rule="evenodd" clip-rule="evenodd" d="M167.206 100.193C157.442 95.7059 145.035 93.0787 129.985 92.3113C145.089 102.056 155.584 110.292 161.47 117.02C163.452 113.744 165.011 110.136 166.051 106.251C166.592 104.233 166.975 102.209 167.206 100.193Z" fill="url(#paint17_linear_1054_6610)"/>
<path fill-rule="evenodd" clip-rule="evenodd" d="M142.069 108.437L143.932 108.164L146.408 107.244C149.141 101.078 149.658 95.0864 147.957 89.2697L147.445 89.4779C148.065 95.4807 146.273 101.8 142.069 108.437Z" fill="url(#paint18_linear_1054_6610)"/>
<path fill-rule="evenodd" clip-rule="evenodd" d="M142.069 108.437C143.311 108.255 143.932 108.164 143.932 108.164C147.439 101.38 148.61 95.1515 147.445 89.478C148.065 95.4808 146.273 101.8 142.069 108.437Z" fill="url(#paint19_linear_1054_6610)"/>
<path fill-rule="evenodd" clip-rule="evenodd" d="M147.859 89.6243L147.822 89.4838L147.795 89.3487C146.362 88.4525 144.809 89.2155 144.463 90.2214C144.232 90.8919 144.424 91.5329 145.04 92.1441C145.17 91.0745 146.11 90.2345 147.859 89.6243Z" fill="url(#paint20_linear_1054_6610)"/>
<path fill-rule="evenodd" clip-rule="evenodd" d="M147.828 89.3029C146.617 86.9182 145.003 86.2187 142.986 87.2045C144.403 87.5053 145.413 87.9437 146.014 88.5195C146.616 89.0953 147.189 89.413 147.734 89.4726L147.828 89.3029Z" fill="url(#paint21_linear_1054_6610)"/>
<path fill-rule="evenodd" clip-rule="evenodd" d="M147.844 89.5702C148.412 88.2056 148.493 87.1195 148.087 86.312C147.68 85.5045 146.668 85.156 145.051 85.2666C146.582 86.261 147.369 87.2631 147.412 88.2729C147.455 89.2828 147.599 89.7152 147.844 89.5702Z" fill="url(#paint22_linear_1054_6610)"/>
<path fill-rule="evenodd" clip-rule="evenodd" d="M148.048 89.2887C149.583 87.8897 150.762 87.6685 151.588 88.6253C151.632 87.5593 151.234 86.8934 150.394 86.6275C149.555 86.3617 148.665 87.227 147.725 89.2236L148.048 89.2887Z" fill="url(#paint23_linear_1054_6610)"/>
<path fill-rule="evenodd" clip-rule="evenodd" d="M147.957 89.5799C149.701 89.6152 150.614 90.3894 150.695 91.9025C151.542 91.0008 151.58 90.1191 150.81 89.2573C150.04 88.3955 148.973 88.419 147.611 89.3279L147.957 89.5799Z" fill="url(#paint24_linear_1054_6610)"/>
<path d="M147.96 89.8645C147.738 89.8051 147.607 89.5775 147.666 89.356C147.725 89.1346 147.953 89.0031 148.174 89.0625C148.396 89.1218 148.527 89.3495 148.468 89.5709C148.409 89.7924 148.181 89.9238 147.96 89.8645Z" fill="url(#paint25_linear_1054_6610)"/>
<path d="M147.391 89.8152C147.17 89.7558 147.038 89.5282 147.098 89.3067C147.157 89.0852 147.385 88.9538 147.606 89.0132C147.828 89.0725 147.959 89.3001 147.9 89.5216C147.84 89.7431 147.613 89.8745 147.391 89.8152Z" fill="url(#paint26_linear_1054_6610)"/>
<path fill-rule="evenodd" clip-rule="evenodd" d="M164.679 110.471C164.244 109.027 163.021 107.884 161.01 107.042C155.683 104.813 158.827 98.8876 151.454 97.9343C144.081 96.981 135.685 93.4072 130.052 92.3464L141.242 107.573L163.138 113.98C163.701 112.844 164.216 111.673 164.679 110.471Z" fill="url(#paint27_linear_1054_6610)"/>
<path fill-rule="evenodd" clip-rule="evenodd" d="M163.795 112.591C143.17 93.1861 116.952 84.9478 85.1409 87.8766C81.1673 109.005 94.0966 129.951 115.206 135.607C135.147 140.95 155.589 130.828 163.795 112.591Z" fill="url(#paint28_linear_1054_6610)"/>
<path fill-rule="evenodd" clip-rule="evenodd" d="M132.719 136.476C129.379 133.1 128.057 127.421 128.785 120.398C130.485 104.015 125.581 96.7216 104.624 97.0489C91.8845 97.2479 85.3008 94.7213 84.8731 89.4692C81.8225 110.048 94.6273 130.093 115.206 135.607C121.11 137.189 127.058 137.415 132.719 136.476Z" fill="url(#paint29_linear_1054_6610)"/>
<path fill-rule="evenodd" clip-rule="evenodd" d="M154.432 125.719C155.093 120.858 152.49 116.565 146.624 112.842C134.423 105.097 134.256 92.4189 121.344 94.5116C112.737 95.9067 106.647 96.7401 103.075 97.0118C119.068 96.8022 127.244 101.103 127.602 109.913C128.052 120.952 126.798 132.361 131.406 136.673C140.071 135.521 148.132 131.647 154.432 125.719Z" fill="url(#paint30_linear_1054_6610)"/>
<path fill-rule="evenodd" clip-rule="evenodd" d="M131.446 136.667C121.003 135.006 122.529 124.22 115.318 122.288C108.091 120.351 98.4693 119.784 97.2789 110.306C96.5764 104.713 92.2924 99.6678 84.4271 95.1702C84.2646 113.641 96.5359 130.605 115.206 135.607C120.669 137.071 126.169 137.374 131.446 136.667L131.446 136.667Z" fill="url(#paint31_linear_1054_6610)"/>
<path fill-rule="evenodd" clip-rule="evenodd" d="M160.964 77.6503C160.696 75.3642 159.669 74.166 157.884 74.0557C155.208 73.8903 155.35 76.3393 152.608 73.9872C149.865 71.6351 146.662 73.818 146.662 73.818C146.662 73.818 151.429 75.0954 160.964 77.6503Z" fill="url(#paint32_linear_1054_6610)"/>
<path fill-rule="evenodd" clip-rule="evenodd" d="M115.142 59.166C125.961 62.0651 131.371 63.5147 131.371 63.5147C131.371 63.5147 129.462 59.552 125.432 60.3074C121.403 61.0629 122.932 58.7371 120.208 57.381C118.392 56.477 116.703 57.072 115.142 59.166Z" fill="url(#paint33_linear_1054_6610)"/>
</g>
</g>
<g filter="url(#filter1_d_1054_6610)">
<rect width="128" height="160" rx="24" transform="matrix(-0.965926 -0.258819 -0.258819 0.965926 213.55 36)" fill="#FCFCFD"/>
<rect x="-0.612372" y="0.353553" width="127" height="159" rx="23.5" transform="matrix(-0.965926 -0.258819 -0.258819 0.965926 212.437 35.8536)" stroke="#F4F5F6"/>
</g>
<rect x="96.5" y="67" width="64" height="64" rx="32" fill="#92A5EF"/>
<path fill-rule="evenodd" clip-rule="evenodd" d="M128.5 109C134.023 109 138.5 104.523 138.5 99C138.5 93.4772 134.023 89 128.5 89C122.977 89 118.5 93.4772 118.5 99C118.5 104.523 122.977 109 128.5 109ZM134.207 96.7071C134.598 96.3166 134.598 95.6834 134.207 95.2929C133.817 94.9024 133.183 94.9024 132.793 95.2929L127.5 100.586L125.207 98.2929C124.817 97.9024 124.183 97.9024 123.793 98.2929C123.402 98.6834 123.402 99.3166 123.793 99.7071L126.793 102.707C127.183 103.098 127.817 103.098 128.207 102.707L134.207 96.7071Z" fill="#FCFCFD"/>
<rect width="12" height="12" rx="4" transform="matrix(-0.965926 -0.258819 -0.258819 0.965926 251.197 84.1055)" fill="#FABDC1"/>
<rect width="4" height="4" rx="2" transform="matrix(0.939693 -0.34202 -0.34202 -0.939693 23.2362 175.254)" fill="#9AC8FF"/>
<rect width="8" height="8" rx="2" transform="matrix(0.939693 -0.34202 -0.34202 -0.939693 33.2362 24.2539)" fill="#92A5EF"/>
<defs>
<filter id="filter0_d_1054_6610" x="33.8698" y="3.6543" width="190.875" height="271.402" filterUnits="userSpaceOnUse" color-interpolation-filters="sRGB">
<feFlood flood-opacity="0" result="BackgroundImageFix"/>
<feColorMatrix in="SourceAlpha" type="matrix" values="0 0 0 0 0 0 0 0 0 0 0 0 0 0 0 0 0 0 127 0" result="hardAlpha"/>
<feMorphology radius="48" operator="erode" in="SourceAlpha" result="effect1_dropShadow_1054_6610"/>
<feOffset dy="64"/>
<feGaussianBlur stdDeviation="32"/>
<feColorMatrix type="matrix" values="0 0 0 0 0.0583333 0 0 0 0 0.0583333 0 0 0 0 0.0583333 0 0 0 0.08 0"/>
<feBlend mode="multiply" in2="BackgroundImageFix" result="effect1_dropShadow_1054_6610"/>
<feBlend mode="normal" in="SourceGraphic" in2="effect1_dropShadow_1054_6610" result="shape"/>
</filter>
<filter id="filter1_d_1054_6610" x="40.5" y="2.87109" width="181.05" height="235.677" filterUnits="userSpaceOnUse" color-interpolation-filters="sRGB">
<feFlood flood-opacity="0" result="BackgroundImageFix"/>
<feColorMatrix in="SourceAlpha" type="matrix" values="0 0 0 0 0 0 0 0 0 0 0 0 0 0 0 0 0 0 127 0" result="hardAlpha"/>
<feMorphology radius="24" operator="erode" in="SourceAlpha" result="effect1_dropShadow_1054_6610"/>
<feOffset dy="40"/>
<feGaussianBlur stdDeviation="16"/>
<feColorMatrix type="matrix" values="0 0 0 0 0.0583333 0 0 0 0 0.0583333 0 0 0 0 0.0583333 0 0 0 0.12 0"/>
<feBlend mode="multiply" in2="BackgroundImageFix" result="effect1_dropShadow_1054_6610"/>
<feBlend mode="normal" in="SourceGraphic" in2="effect1_dropShadow_1054_6610" result="shape"/>
</filter>
<linearGradient id="paint0_linear_1054_6610" x1="146.105" y1="57.9273" x2="134.539" y2="132.405" gradientUnits="userSpaceOnUse">
<stop stop-color="#EEFFFD"/>
<stop offset="1" stop-color="#B7FFF6"/>
</linearGradient>
<linearGradient id="paint1_linear_1054_6610" x1="137.873" y1="88.6495" x2="136.168" y2="91.9153" gradientUnits="userSpaceOnUse">
<stop stop-color="#EEFFFD"/>
<stop offset="1" stop-color="#B7FFF6"/>
</linearGradient>
<linearGradient id="paint2_linear_1054_6610" x1="111.576" y1="73.2834" x2="112.935" y2="88.2902" gradientUnits="userSpaceOnUse">
<stop stop-color="#30A0DE"/>
<stop offset="1" stop-color="#194383"/>
</linearGradient>
<linearGradient id="paint3_linear_1054_6610" x1="130.683" y1="77.5771" x2="127.347" y2="98.8669" gradientUnits="userSpaceOnUse">
<stop stop-color="#F9BB49"/>
<stop offset="1" stop-color="#F08523"/>
</linearGradient>
<linearGradient id="paint4_linear_1054_6610" x1="129.461" y1="82.4069" x2="127.237" y2="96.6001" gradientUnits="userSpaceOnUse">
<stop stop-color="#F9BB49"/>
<stop offset="1" stop-color="#F08523"/>
</linearGradient>
<linearGradient id="paint5_linear_1054_6610" x1="115.434" y1="75.7679" x2="114.306" y2="90.4947" gradientUnits="userSpaceOnUse">
<stop stop-color="#30A0DE"/>
<stop offset="1" stop-color="#194383"/>
</linearGradient>
<linearGradient id="paint6_linear_1054_6610" x1="159.613" y1="103.408" x2="164.671" y2="89.3717" gradientUnits="userSpaceOnUse">
<stop stop-color="#DB593D"/>
<stop offset="1" stop-color="#F88461"/>
</linearGradient>
<linearGradient id="paint7_linear_1054_6610" x1="160.07" y1="98.3472" x2="161.384" y2="88.8748" gradientUnits="userSpaceOnUse">
<stop stop-color="#CD4C30"/>
<stop offset="1" stop-color="#F88461" stop-opacity="0"/>
</linearGradient>
<linearGradient id="paint8_linear_1054_6610" x1="159.322" y1="93.4582" x2="159.363" y2="90.051" gradientUnits="userSpaceOnUse">
<stop stop-color="#13DBBF"/>
<stop offset="1" stop-color="#08B58B"/>
</linearGradient>
<linearGradient id="paint9_linear_1054_6610" x1="160.448" y1="89.465" x2="159.912" y2="88.4617" gradientUnits="userSpaceOnUse">
<stop stop-color="#13DBBF"/>
<stop offset="1" stop-color="#08B58B"/>
</linearGradient>
<linearGradient id="paint10_linear_1054_6610" x1="157.103" y1="86.0861" x2="160.03" y2="89.059" gradientUnits="userSpaceOnUse">
<stop stop-color="#13DBBF"/>
<stop offset="1" stop-color="#08B58B"/>
</linearGradient>
<linearGradient id="paint11_linear_1054_6610" x1="163.627" y1="90.6361" x2="163.489" y2="87.6125" gradientUnits="userSpaceOnUse">
<stop stop-color="#13DBBF"/>
<stop offset="1" stop-color="#08B58B"/>
</linearGradient>
<linearGradient id="paint12_linear_1054_6610" x1="160.181" y1="90.4579" x2="163.644" y2="88.6159" gradientUnits="userSpaceOnUse">
<stop stop-color="#13DBBF"/>
<stop offset="1" stop-color="#08B58B"/>
</linearGradient>
<linearGradient id="paint13_linear_1054_6610" x1="161.786" y1="89.7835" x2="161.021" y2="89.9414" gradientUnits="userSpaceOnUse">
<stop stop-color="#E3F35C"/>
<stop offset="1" stop-color="#C3E22F"/>
</linearGradient>
<linearGradient id="paint14_linear_1054_6610" x1="161.215" y1="89.7742" x2="160.45" y2="89.9321" gradientUnits="userSpaceOnUse">
<stop stop-color="#E3F35C"/>
<stop offset="1" stop-color="#C3E22F"/>
</linearGradient>
<linearGradient id="paint15_linear_1054_6610" x1="105.179" y1="79.3839" x2="107.312" y2="95.7022" gradientUnits="userSpaceOnUse">
<stop stop-color="#30A0DE"/>
<stop offset="1" stop-color="#194383"/>
</linearGradient>
<linearGradient id="paint16_linear_1054_6610" x1="105.078" y1="83.1581" x2="107.01" y2="95.6544" gradientUnits="userSpaceOnUse">
<stop stop-color="#30A0DE"/>
<stop offset="1" stop-color="#194383"/>
</linearGradient>
<linearGradient id="paint17_linear_1054_6610" x1="130.109" y1="96.6242" x2="148.05" y2="112.445" gradientUnits="userSpaceOnUse">
<stop stop-color="#68C179"/>
<stop offset="1" stop-color="#25A062"/>
</linearGradient>
<linearGradient id="paint18_linear_1054_6610" x1="145.778" y1="102.905" x2="150.682" y2="88.8049" gradientUnits="userSpaceOnUse">
<stop stop-color="#DB593D"/>
<stop offset="1" stop-color="#F88461"/>
</linearGradient>
<linearGradient id="paint19_linear_1054_6610" x1="146.297" y1="97.8438" x2="147.814" y2="88.367" gradientUnits="userSpaceOnUse">
<stop stop-color="#CD4C30"/>
<stop offset="1" stop-color="#F88461" stop-opacity="0"/>
</linearGradient>
<linearGradient id="paint20_linear_1054_6610" x1="146.18" y1="92.9893" x2="146.172" y2="89.6302" gradientUnits="userSpaceOnUse">
<stop stop-color="#13DBBF"/>
<stop offset="1" stop-color="#08B58B"/>
</linearGradient>
<linearGradient id="paint21_linear_1054_6610" x1="147.129" y1="88.5121" x2="146.656" y2="87.4805" gradientUnits="userSpaceOnUse">
<stop stop-color="#13DBBF"/>
<stop offset="1" stop-color="#08B58B"/>
</linearGradient>
<linearGradient id="paint22_linear_1054_6610" x1="144.861" y1="84.625" x2="147.543" y2="88.0727" gradientUnits="userSpaceOnUse">
<stop stop-color="#13DBBF"/>
<stop offset="1" stop-color="#08B58B"/>
</linearGradient>
<linearGradient id="paint23_linear_1054_6610" x1="150.582" y1="90.0499" x2="150.409" y2="87.4691" gradientUnits="userSpaceOnUse">
<stop stop-color="#13DBBF"/>
<stop offset="1" stop-color="#08B58B"/>
</linearGradient>
<linearGradient id="paint24_linear_1054_6610" x1="146.882" y1="90.4185" x2="150.402" y2="88.4357" gradientUnits="userSpaceOnUse">
<stop stop-color="#13DBBF"/>
<stop offset="1" stop-color="#08B58B"/>
</linearGradient>
<linearGradient id="paint25_linear_1054_6610" x1="148.56" y1="89.4568" x2="147.794" y2="89.6147" gradientUnits="userSpaceOnUse">
<stop stop-color="#E3F35C"/>
<stop offset="1" stop-color="#C3E22F"/>
</linearGradient>
<linearGradient id="paint26_linear_1054_6610" x1="147.991" y1="89.4075" x2="147.226" y2="89.5654" gradientUnits="userSpaceOnUse">
<stop stop-color="#E3F35C"/>
<stop offset="1" stop-color="#C3E22F"/>
</linearGradient>
<linearGradient id="paint27_linear_1054_6610" x1="131.727" y1="98.4069" x2="147.619" y2="107.306" gradientUnits="userSpaceOnUse">
<stop stop-color="#68C179"/>
<stop offset="1" stop-color="#25A062"/>
</linearGradient>
<linearGradient id="paint28_linear_1054_6610" x1="120.321" y1="102.494" x2="124.775" y2="128.797" gradientUnits="userSpaceOnUse">
<stop stop-color="#77EBFF"/>
<stop offset="1" stop-color="#4D86DE"/>
</linearGradient>
<linearGradient id="paint29_linear_1054_6610" x1="83.1585" y1="100.499" x2="119.024" y2="152.953" gradientUnits="userSpaceOnUse">
<stop stop-color="#91F6FF"/>
<stop offset="1" stop-color="#4D86DE"/>
</linearGradient>
<linearGradient id="paint30_linear_1054_6610" x1="124.793" y1="98.9421" x2="130.499" y2="138.636" gradientUnits="userSpaceOnUse">
<stop stop-color="#77EBFF"/>
<stop offset="1" stop-color="#4D86DE"/>
</linearGradient>
<linearGradient id="paint31_linear_1054_6610" x1="99.8785" y1="111.359" x2="123.02" y2="150.485" gradientUnits="userSpaceOnUse">
<stop stop-color="#91F6FF"/>
<stop offset="1" stop-color="#4D86DE"/>
</linearGradient>
<linearGradient id="paint32_linear_1054_6610" x1="152.377" y1="73.8762" x2="160.588" y2="79.366" gradientUnits="userSpaceOnUse">
<stop stop-color="#C1FFF7"/>
<stop offset="1" stop-color="#93E9DE"/>
</linearGradient>
<linearGradient id="paint33_linear_1054_6610" x1="121.627" y1="59.2321" x2="130.945" y2="65.4615" gradientUnits="userSpaceOnUse">
<stop stop-color="#C1FFF7"/>
<stop offset="1" stop-color="#93E9DE"/>
</linearGradient>
<clipPath id="clip0_1054_6610">
<rect width="120" height="166" rx="24" transform="matrix(-0.965926 -0.258819 -0.258819 0.965926 208.745 34.7124)" fill="white"/>
</clipPath>
</defs>
</svg>
